<?xml version="1.0" encoding="UTF-8" standalone="no"?>
<!-- SVG created by Florian Albrecht; http://de.wikipedia.org/wiki/Benutzer:Flo12 -->

<!-- Rings created using proton32 text editor. Text vectorized using CorelDRAW -->

<svg
   xmlns:dc="http://purl.org/dc/elements/1.1/"
   xmlns:cc="http://creativecommons.org/ns#"
   xmlns:rdf="http://www.w3.org/1999/02/22-rdf-syntax-ns#"
   xmlns:svg="http://www.w3.org/2000/svg"
   xmlns="http://www.w3.org/2000/svg"
   xmlns:xlink="http://www.w3.org/1999/xlink"
   xmlns:sodipodi="http://sodipodi.sourceforge.net/DTD/sodipodi-0.dtd"
   xmlns:inkscape="http://www.inkscape.org/namespaces/inkscape"
   xml:space="preserve"
   width="1018.5555"
   height="133.65254"
   style="fill-rule:evenodd"
   viewBox="0 0 287.45898 37.719717"
   id="svg15839"
   version="1.1"
   inkscape:version="0.48.2 r9819"
   sodipodi:docname="Logo Audi 2011.svg.svg"><metadata
   id="metadata15882"><rdf:RDF><cc:Work
       rdf:about=""><dc:format>image/svg+xml</dc:format><dc:type
         rdf:resource="http://purl.org/dc/dcmitype/StillImage" /><dc:title /></cc:Work></rdf:RDF></metadata><sodipodi:namedview
   pagecolor="#ffffff"
   bordercolor="#666666"
   borderopacity="1"
   objecttolerance="10"
   gridtolerance="10"
   guidetolerance="10"
   inkscape:pageopacity="0"
   inkscape:pageshadow="2"
   inkscape:window-width="1366"
   inkscape:window-height="706"
   id="namedview15880"
   showgrid="true"
   inkscape:zoom="0.6899"
   inkscape:cx="459.3898"
   inkscape:cy="191.75364"
   inkscape:window-x="-8"
   inkscape:window-y="-8"
   inkscape:window-maximized="1"
   inkscape:current-layer="svg15839"
   fit-margin-top="0"
   fit-margin-left="0"
   fit-margin-right="0"
   fit-margin-bottom="0"><inkscape:grid
     type="xygrid"
     id="grid29485"
     empspacing="5"
     visible="true"
     enabled="true"
     snapvisiblegridlinesonly="true" /></sodipodi:namedview>
 <defs
   id="defs15841">
    <style
   type="text/css"
   id="style15843">
     
      .str0 {stroke:black;stroke-width:0.0762}
      .str1 {stroke:white;stroke-width:0.1}
      .fil2 {fill:white}
      .fil0 {fill:url(#id0)}
      .fil1 {fill:url(#id1)}
      .char {fill:#ff0024}
     
    </style>
    <linearGradient
   id="id0"
   gradientUnits="objectBoundingBox"
   x1="0"
   y1="0"
   x2="1"
   y2="1">
     <stop
   offset="0"
   style="stop-color:#101010"
   id="stop15846" />
     <stop
   offset="0.9"
   style="stop-color:white"
   id="stop15848" />
     <stop
   offset="1"
   style="stop-color:white"
   id="stop15850" />
    </linearGradient>
    <linearGradient
   id="id1"
   gradientUnits="objectBoundingBox"
   x1="0"
   y1="0"
   x2="1"
   y2="1">
     <stop
   offset="0"
   style="stop-color:white"
   id="stop15853" />
     <stop
   offset="0.1"
   style="stop-color:white"
   id="stop15855" />
     <stop
   offset="1"
   style="stop-color:#101010"
   id="stop15857" />
    </linearGradient>
  
    <clipPath
   id="RingClip">
      <path
   d="M 4,10 H 86 V 29 H 49 v 63 h 37 v 20 H 4 z"
   id="path15860"
   inkscape:connector-curvature="0" />
      <rect
   x="86"
   y="29"
   width="30"
   height="63"
   id="rect15862" />
    </clipPath>
  
    <g
   id="AudiRing">
        <path
   id="InnerRing"
   class="fil0 str0"
   d="m 5,60.5 a 50,50 0 1 1 0,0.01 m 11,0 a 39,39 0 1 1 0,0.01"
   inkscape:connector-curvature="0"
   style="fill:url(#id0);fill-rule:evenodd;stroke:#000000;stroke-width:0.0762" />
        <path
   id="OuterRing"
   class="fil1 str0"
   d="m 5,60.5 a 50,50 0 1 1 0,0.01 m 6,0 a 44,44 0 1 1 0,0.01"
   inkscape:connector-curvature="0"
   style="fill:url(#id1);fill-rule:evenodd;stroke:#000000;stroke-width:0.0762" />
        <path
   id="RingFront"
   class="fil2 str1"
   d="m 10,60.5 a 45,45 0 1 1 0,0.01 m 1.1,0 a 43.9,43.9 0 1 1 0,0.01"
   inkscape:connector-curvature="0"
   style="fill:#ffffff;fill-rule:evenodd;stroke:#ffffff;stroke-width:0.1" />
    </g>
  </defs>

  <!-- Rings -->
  <g
   inkscape:groupmode="layer"
   id="layer2"
   inkscape:label="Calque"
   style="display:none"
   transform="translate(-2.6933771,-68.416529)" />
  
  
  
  
  <!-- Text -->
  
  
  
  
  
<g
   inkscape:groupmode="layer"
   id="layer3"
   inkscape:label="Calque#1"
   style="display:inline"
   transform="translate(-2.6933771,-68.416529)" /><g
   id="g29487"
   transform="matrix(0.37684386,0,0,0.37684386,177.65924,48.662251)"
   inkscape:export-filename="C:\Users\Alexandre\Desktop\Audi logo 2011.png"
   inkscape:export-xdpi="500"
   inkscape:export-ydpi="500"><g
     transform="translate(0.36666066,-139.59982)"
     id="g28822"><use
       xlink:href="#AudiRing"
       transform="translate(186,0)"
       id="use15868"
       x="0"
       y="0"
       width="295"
       height="180" /><use
       xlink:href="#AudiRing"
       clip-path="url(#RingClip)"
       transform="translate(124,0)"
       id="use15870"
       x="0"
       y="0"
       width="295"
       height="180" /><use
       xlink:href="#AudiRing"
       clip-path="url(#RingClip)"
       transform="translate(62,0)"
       id="use15872"
       x="0"
       y="0"
       width="295"
       height="180" /><use
       xlink:href="#AudiRing"
       clip-path="url(#RingClip)"
       id="use15874"
       x="0"
       y="0"
       width="295"
       height="180" /></g><g
     transform="matrix(0.66840766,0,0,0.66840766,2.5578977,-114.51546)"
     id="g29265"><path
       style="fill:#b1b2b2;fill-opacity:1;fill-rule:evenodd;stroke:none"
       d="m -17.021215,102.88942 c -5.834611,-0.34907 -9.830435,-3.044848 -11.380512,-7.67788 -0.484321,-1.447587 -0.696835,-2.836168 -0.694803,-4.540172 0.0037,-3.206157 0.983714,-5.82777 2.952665,-7.899177 2.345916,-2.467988 5.646426,-3.748509 9.65064,-3.744225 1.85589,0.002 3.31917,0.194708 4.751025,0.625743 4.2303472,1.273469 6.8594952,4.038459 7.7539962,8.154633 0.135655,0.624245 0.15862,0.959398 0.161346,2.354921 0.0017,0.894904 -0.02021,1.684043 -0.04879,1.753647 -0.04915,0.119688 -0.608592,0.126552 -10.3129862,0.126552 l -10.261024,0 0.09073,0.560442 c 0.337227,2.082712 1.159168,3.52378 2.651077,4.647978 2.311538,1.741812 5.764826,2.244186 10.390493,1.511602 1.238883,-0.19621 2.3014522,-0.475484 4.2316832,-1.112208 0.909912,-0.300154 1.682546,-0.545724 1.716958,-0.545724 0.03441,0 0.06257,0.845654 0.06257,1.879232 l 0,1.879236 -0.271181,0.1137 c -1.618172,0.67845 -3.637845,1.27506 -5.2431702,1.54882 -1.895548,0.32325 -4.406747,0.47021 -6.200724,0.36288 z m 8.5703892,-14.876263 c -0.277515,-2.221163 -3.0032882,-4.564764 -6.0031972,-5.161512 -0.767091,-0.152592 -2.944469,-0.13447 -3.724238,0.03099 -3.41512,0.724682 -5.871515,2.748079 -6.18227,5.092516 l -0.05026,0.379084 4.327551,0.01922 c 2.380149,0.01058 5.982795,0.02709 8.005879,0.03673 l 3.6783322,0.0175 -0.05179,-0.414542 z"
       id="path29108-1"
       inkscape:connector-curvature="0" /><g
       id="g29197"><path
         transform="matrix(0.28222222,0,0,0.28222222,-3.3493983e-6,0)"
         inkscape:connector-curvature="0"
         id="path28753"
         d="m -478.35754,175.09791 c 2.49504,-4.65067 16.43764,-31.17102 30.98355,-58.93411 l 26.4471,-50.478339 13.05641,0 c 9.22298,0 13.35306,0.37616 14.06677,1.281176 1.17267,1.486994 59.24549,112.098103 60.2842,114.823103 0.64866,1.70176 -0.25288,1.80428 -13.51898,1.53741 l -14.214,-0.28595 -6.14964,-11.78682 -6.14965,-11.78682 -34.02077,-0.26998 -34.02078,-0.26998 -6.46439,12.29637 -6.46439,12.29637 -14.18594,0.0167 -14.18593,0.0167 4.53644,-8.45576 z m 83.04677,-59.67539 c -6.60902,-13.23229 -12.32302,-23.72512 -12.69777,-23.317412 -1.33188,1.448985 -23.4524,45.008122 -23.4524,46.181822 0,0.8752 6.43449,1.19428 24.08328,1.19428 l 24.08329,0 -12.0164,-24.05869 z"
         style="fill:#db00ff;fill-opacity:0;stroke:none" /><path
         transform="matrix(0.28222222,0,0,0.28222222,-3.3493983e-6,0)"
         inkscape:connector-curvature="0"
         id="path28767"
         d="m -480.37266,178.49958 c 1.59164,-3.03939 15.51547,-29.57856 30.94185,-58.97594 l 28.04797,-53.449772 13.78283,-0.09486 13.78284,-0.09486 6.51317,12.415491 c 3.58225,6.828519 16.90446,32.228141 29.60491,56.443611 12.70045,24.21547 23.7323,45.21036 24.51521,46.65531 l 1.42347,2.62719 -14.61373,0 -14.61374,0 -6.36881,-12.23003 -6.36881,-12.23003 -34.01668,-0.0921 -34.01667,-0.0921 -6.2068,12.05033 -6.20681,12.05034 -2.12773,0.23245 c -1.17026,0.12784 -7.71643,0.25014 -14.54705,0.27178 l -12.4193,0.0393 2.89388,-5.52616 z m 96.77442,-39.44273 c 0,-0.39946 -21.09692,-42.342475 -23.08473,-45.895019 l -1.06412,-1.901746 -6.55598,12.772885 c -6.80842,13.26472 -17.49056,34.56023 -17.49056,34.86852 0,0.20329 10.15313,0.3497 32.52283,0.469 11.17431,0.0596 15.67256,-0.0304 15.67256,-0.31364 z"
         style="fill:#db0028;fill-opacity:1;stroke:none" /><path
         transform="matrix(0.28222222,0,0,0.28222222,-3.3493983e-6,0)"
         inkscape:connector-curvature="0"
         id="path28769"
         d="m -483.97511,184.24687 c 0,-0.16612 30.91944,-59.37609 49.26804,-94.347086 l 12.78618,-24.369473 14.36408,0 14.36409,0 15.45741,29.442672 c 23.04003,43.885777 46.31854,88.641267 46.31854,89.052497 0,0.23626 -5.2723,0.36 -15.129,0.35508 l -15.12901,-0.008 -6.27755,-12.13189 -6.27755,-12.13189 -33.5833,0.005 -33.5833,0.005 -6.08168,11.92812 -6.08169,11.92811 -1.34693,-0.18647 c -1.01767,-0.14089 -1.21405,-0.0919 -0.80336,0.20036 0.38903,0.27686 -3.55139,0.38841 -13.86071,0.39238 -7.92234,0.003 -14.40426,-0.058 -14.40426,-0.13566 z m 99.28975,-45.82601 c 0,-0.16966 -5.16111,-10.54966 -11.46914,-23.06667 -10.02245,-19.887521 -11.52789,-22.677848 -11.93492,-22.121206 -0.25618,0.350345 -5.53983,10.730346 -11.74144,23.066666 l -11.27566,22.42967 23.21058,0 c 12.76582,0 23.21058,-0.13881 23.21058,-0.30846 z"
         style="fill:#db0028;fill-opacity:1;stroke:none" /><path
         transform="matrix(0.28222222,0,0,0.28222222,-3.3493983e-6,0)"
         inkscape:connector-curvature="0"
         id="path28771"
         d="m -483.97511,184.18511 c 0,-0.20043 29.43615,-56.63576 50.8322,-97.456075 l 11.01638,-21.017539 14.56975,0 14.56974,0 11.73179,22.351452 c 27.93516,53.222172 49.83848,95.384292 49.83848,95.935032 0,0.27239 -4.58142,0.39014 -15.18022,0.39014 l -15.18021,0 -6.28317,-12.14131 -6.28316,-12.1413 -33.50617,0.0924 -33.50618,0.0925 -6.15777,12.04885 -6.15778,12.04885 -15.15184,0 c -8.33351,0 -15.15184,-0.0913 -15.15184,-0.20301 z m 92.49585,-45.69531 6.79502,-0.23748 -10.19166,-20.14489 c -11.07946,-21.899704 -12.5428,-24.674525 -13.01251,-24.674525 -0.1712,0 -4.66211,8.683325 -9.97981,19.296275 -5.3177,10.61295 -10.47735,20.80465 -11.46588,22.64821 l -1.79734,3.35193 16.42858,-0.001 c 9.03572,-7.3e-4 19.48633,-0.10789 23.2236,-0.2385 l 0,6e-5 z"
         style="fill:#db0028;fill-opacity:1;stroke:none" /><path
         transform="matrix(0.28222222,0,0,0.28222222,-3.3493983e-6,0)"
         inkscape:connector-curvature="0"
         id="path28773"
         d="m -483.97511,184.18511 c 0,-0.20043 29.43615,-56.63576 50.8322,-97.456075 l 11.01638,-21.017539 14.56975,0 14.56974,0 11.73179,22.351452 c 27.93516,53.222172 49.83848,95.384292 49.83848,95.935032 0,0.27239 -4.58142,0.39014 -15.18022,0.39014 l -15.18021,0 -6.28317,-12.14131 -6.28316,-12.1413 -33.50617,0.0924 -33.50618,0.0925 -6.15777,12.04885 -6.15778,12.04885 -15.15184,0 c -8.33351,0 -15.15184,-0.0913 -15.15184,-0.20301 z m 92.49585,-45.69531 6.79502,-0.23748 -10.19166,-20.14489 c -11.07946,-21.899704 -12.5428,-24.674525 -13.01251,-24.674525 -0.1712,0 -4.66211,8.683325 -9.97981,19.296275 -5.3177,10.61295 -10.47735,20.80465 -11.46588,22.64821 l -1.79734,3.35193 16.42858,-0.001 c 9.03572,-7.3e-4 19.48633,-0.10789 23.2236,-0.2385 l 0,6e-5 z"
         style="fill:#db0028;fill-opacity:1;stroke:none" /><path
         transform="matrix(0.28222222,0,0,0.28222222,-3.3493983e-6,0)"
         inkscape:connector-curvature="0"
         id="path28775"
         d="m -283.40256,186.20092 c -19.99271,-2.11523 -30.16498,-10.76612 -33.17267,-28.21133 -0.66033,-3.83007 -0.70906,-5.95295 -0.70906,-30.89216 l 0,-26.77947 12.683,0 12.683,0 0,25.28269 c 0,24.11945 0.0332,25.4023 0.72048,27.88262 1.17394,4.23632 2.26222,6.28228 4.42041,8.3104 4.11175,3.86394 8.6488,5.29694 16.78258,5.30067 7.98938,0.004 14.7323,-1.48911 22.91998,-5.07411 l 3.71431,-1.62631 0,-30.03798 0,-30.03798 12.683,0 12.683,0 0,41.85389 0,41.85389 -11.00518,0 -11.00518,0 -0.4392,-2.26482 c -0.91556,-4.7213 -1.17431,-5.70735 -1.49767,-5.70735 -0.18317,0 -2.00416,0.95797 -4.04665,2.12881 -8.67788,4.97452 -18.73429,7.73907 -29.62317,8.14353 -2.69061,0.1 -6.19655,0.0437 -7.79098,-0.12499 l 0,0 z"
         style="fill:#db0028;fill-opacity:1;stroke:none" /><path
         transform="matrix(0.28222222,0,0,0.28222222,-3.3493983e-6,0)"
         inkscape:connector-curvature="0"
         id="path28777"
         d="m -286.96887,186.37662 c -10.65215,-1.72493 -18.46777,-5.51242 -23.19083,-11.23841 -2.46155,-2.98425 -3.88161,-5.62191 -5.27219,-9.79273 -2.18443,-6.55183 -2.21234,-7.02793 -2.21361,-37.75907 l -10e-4,-27.993192 13.00039,0 13.00039,0 0.26849,26.000142 c 0.25331,24.52918 0.30944,26.13341 0.99218,28.35556 1.1143,3.62681 2.22529,5.5171 4.42319,7.52586 4.14167,3.78525 8.08783,4.98344 16.32957,4.9582 8.1545,-0.025 14.29964,-1.43453 22.19315,-5.09058 l 3.34983,-1.55156 0.0927,-30.00822 0.0927,-30.008216 13.22656,0 13.22655,0 0.0921,42.311876 0.0921,42.31188 -11.66165,-0.0956 -11.66165,-0.0956 -0.69021,-3.26134 c -0.37961,-1.79374 -0.82199,-3.39835 -0.98306,-3.56581 -0.16108,-0.16746 -1.62068,0.46142 -3.24357,1.3975 -5.63033,3.24757 -12.19958,5.55952 -20.21429,7.11414 -5.12483,0.99406 -16.50099,1.25384 -21.24766,0.4852 l 0,0 z"
         style="fill:#db0028;fill-opacity:1;stroke:none" /><path
         transform="matrix(0.28222222,0,0,0.28222222,-3.3493983e-6,0)"
         inkscape:connector-curvature="0"
         id="path28779"
         d="m -286.48272,186.5279 c -1.29548,-0.16783 -3.91656,-0.70125 -5.82463,-1.18538 -13.43112,-3.40785 -20.59251,-10.20003 -24.13494,-22.89062 l -1.00796,-3.61097 -0.11402,-29.62385 -0.11403,-29.623862 13.06119,0 13.06119,0 0.0296,2.808382 c 0.44438,42.20658 0.62064,49.59694 1.22937,51.54732 1.08235,3.46787 2.71715,6.11235 4.85536,7.85412 4.21894,3.43673 7.8262,4.46651 15.64592,4.46651 7.85503,0 13.80549,-1.31225 21.90553,-4.83081 l 3.62371,-1.5741 0.0927,-30.13571 0.0927,-30.135712 13.40566,0 13.40566,0 0,42.397452 0,42.39745 -11.69541,0 -11.6954,0 -0.66483,-3.03226 c -0.36564,-1.66773 -0.79732,-3.24665 -0.95928,-3.5087 -0.22585,-0.36544 -1.29316,0.0376 -4.58063,1.72983 -6.76886,3.48425 -14.20675,5.80691 -21.86118,6.82667 -4.11398,0.54808 -13.95307,0.61693 -17.7562,0.12424 l 0,0 z"
         style="fill:#db0028;fill-opacity:1;stroke:none" /><path
         transform="matrix(0.28222222,0,0,0.28222222,-3.3493983e-6,0)"
         inkscape:connector-curvature="0"
         id="path28781"
         d="m -285.75798,186.70498 c -9.62624,-1.76224 -14.01257,-3.27267 -18.85751,-6.49358 -5.62052,-3.73651 -9.60456,-9.73175 -11.94058,-17.96835 l -1.09059,-3.84531 0,-29.40226 0,-29.402262 13.00888,0 13.00888,0 0.20694,4.439052 c 0.11381,2.44147 0.29063,13.81541 0.39293,25.2754 0.1023,11.45999 0.34682,21.79634 0.54338,22.96965 0.44331,2.64621 2.0521,6.14739 3.67775,8.00383 1.74282,1.99024 5.11954,4.06914 8.10111,4.98752 2.19681,0.67666 3.40834,0.78526 8.71197,0.78091 8.54647,-0.007 13.63499,-1.09567 22.10465,-4.72921 l 3.26134,-1.39913 0.2227,-7.24402 c 0.12248,-3.98422 0.24478,-17.55802 0.27178,-30.16401 l 0.0491,-22.919992 13.40774,0 13.40774,0 0,42.397452 0,42.39745 -11.71941,0 -11.7194,0 -0.43224,-1.93147 c -0.82003,-3.66425 -1.163,-4.59122 -1.69874,-4.59122 -0.29265,0 -2.44562,0.9569 -4.78439,2.12645 -5.1348,2.56778 -10.5368,4.43377 -16.48705,5.69506 -3.85961,0.81813 -5.49104,0.95576 -12.58767,1.06192 -4.48435,0.0671 -8.56103,0.0473 -9.05929,-0.0439 z"
         style="fill:#db0028;fill-opacity:1;stroke:none" /><path
         transform="matrix(0.28222222,0,0,0.28222222,-3.3493983e-6,0)"
         inkscape:connector-curvature="0"
         id="path28783"
         d="m -483.81563,183.75793 c 0.21446,-0.57008 21.3233,-41.08359 51.07196,-98.020787 l 10.55288,-20.197574 14.6507,0.08596 14.6507,0.08596 4.67187,8.878099 c 24.27936,46.138772 56.39285,107.915472 56.69145,109.057322 l 0.1959,0.74913 -15.32422,-0.0946 -15.32422,-0.0946 -6.05627,-11.71623 c -3.33095,-6.44393 -6.22042,-11.88038 -6.42105,-12.08101 -0.24338,-0.24338 -11.44455,-0.27622 -33.65518,-0.0987 l -33.2904,0.26609 -6.03763,11.81492 -6.03763,11.81492 -15.28946,0.0946 c -14.46891,0.0895 -15.27658,0.0603 -15.0494,-0.54356 l 0,0 z m 98.14832,-45.62266 c 0.55259,-0.1608 -0.87745,-3.20489 -9.65069,-20.54312 -10.83187,-21.406608 -12.09055,-23.796874 -12.53109,-23.796874 -0.27695,0 -22.85743,44.197394 -22.85743,44.739474 0,0.3131 43.92946,-0.0765 45.03921,-0.39948 z"
         style="fill:#db0028;fill-opacity:1;stroke:none" /><path
         transform="matrix(0.28222222,0,0,0.28222222,-3.3493983e-6,0)"
         inkscape:connector-curvature="0"
         id="path28785"
         d="m -150.95583,186.30606 c -3.29571,-0.26206 -9.90294,-1.59638 -13.32888,-2.69174 -11.30846,-3.61562 -19.02176,-10.2 -23.81071,-20.32578 -3.382,-7.15092 -4.72559,-14.11068 -4.42386,-22.91536 0.28176,-8.22181 1.81893,-14.42143 5.13814,-20.72283 4.83962,-9.18781 11.45691,-14.76341 21.79063,-18.36034 7.57972,-2.638331 15.28509,-3.696092 24.78108,-3.401847 10.31752,0.319701 17.46234,1.925325 25.24856,5.674007 2.42671,1.16834 4.50582,2.03064 4.62023,1.91623 0.11442,-0.11442 0.20803,-9.06801 0.20803,-19.896874 l 0,-19.688844 12.50181,0 12.501812,0 0,59.066528 0,59.06653 -10.992141,0 -10.992141,0 -0.83082,-4.52964 c -0.45695,-2.4913 -0.95208,-4.52964 -1.10028,-4.52964 -0.1482,0 -1.39132,0.82588 -2.76248,1.8353 -9.24823,6.80826 -24.66198,10.60854 -38.54898,9.5043 z m 23.5532,-20.3987 c 4.36701,-0.88993 10.0383,-2.71915 13.86504,-4.47202 l 2.81177,-1.28797 -0.094,-18.03039 -0.094,-18.03039 -3.9035,-1.74182 c -8.04932,-3.59178 -13.79416,-4.73324 -23.99909,-4.76846 -6.37477,-0.022 -7.64013,0.0736 -10.50877,0.79406 -10.54727,2.64895 -16.28795,9.55857 -17.40395,20.94784 -0.52719,5.38022 1.09114,12.98157 3.66629,17.22074 2.46899,4.06439 7.41684,7.68131 12.46936,9.11519 6.31148,1.79117 15.1694,1.88789 23.19083,0.25322 l 0,0 z"
         style="fill:#db0028;fill-opacity:1;stroke:none" /><path
         transform="matrix(0.28222222,0,0,0.28222222,-3.3493983e-6,0)"
         inkscape:connector-curvature="0"
         id="path28787"
         d="m -153.49243,186.68891 c -8.39565,-1.11339 -16.40739,-3.84952 -22.17924,-7.57455 -3.17847,-2.05132 -8.36743,-7.16162 -10.19051,-10.03603 -3.93854,-6.20984 -7.28769,-16.48728 -6.6511,-20.4101 0.12088,-0.74487 0.0651,-1.17227 -0.13672,-1.04754 -0.20608,0.12737 -0.34091,-1.59765 -0.34091,-4.36172 0,-2.956 0.1281,-4.49325 0.36237,-4.34846 0.21917,0.13546 0.36237,-0.36574 0.36237,-1.2683 0,-0.83992 -0.14902,-1.40016 -0.3409,-1.28157 -0.65112,0.40241 0.73032,-7.38104 2.00313,-11.28627 3.73924,-11.47274 11.64696,-19.58532 23.57305,-24.18375 5.5746,-2.149442 15.8501,-3.836335 23.32248,-3.828775 3.4245,0.0035 5.67142,0.346929 5.01054,0.765913 -0.30363,0.192495 0.0947,0.306922 1.08057,0.310426 0.85881,0.003 1.47027,-0.142006 1.35881,-0.322352 -0.26645,-0.431135 1.83421,-0.181067 7.44347,0.886091 5.18534,0.986505 9.71721,2.418107 14.24428,4.499727 l 3.11339,1.43158 0,-19.732642 0,-19.732649 13.22655,0 13.226554,0 0,59.610091 0,59.61009 -11.557113,0 c -8.914011,0 -11.595751,-0.1036 -11.726051,-0.45297 -0.0929,-0.24913 -0.46589,-2.08363 -0.82884,-4.07668 -0.36295,-1.99304 -0.70347,-3.68308 -0.75671,-3.75564 -0.0532,-0.0726 -1.18386,0.62798 -2.5125,1.55676 -4.013,2.80529 -9.61506,5.3556 -15.19742,6.91856 -5.74875,1.60953 -8.96505,2.01996 -16.85027,2.15023 -4.28504,0.0708 -8.36172,0.053 -9.05928,-0.0395 l 0,0 z m 20.29279,-20.62124 c 5.86208,-0.41917 12.19954,-2.11212 18.66213,-4.98527 l 2.89897,-1.28883 0.094,-17.54609 0.094,-17.54609 -3.71772,-1.67952 c -7.60312,-3.4348 -12.93886,-4.58889 -22.37985,-4.84064 -5.82307,-0.15528 -7.17998,-0.0804 -10.32759,0.56962 -9.17329,1.89449 -14.82903,6.95549 -17.27854,15.46156 -1.07997,3.75025 -1.18024,11.35443 -0.19813,15.02568 1.15487,4.31703 3.23291,7.97086 6.0385,10.61751 4.06514,3.83485 8.63389,5.66978 15.87564,6.37607 3.09869,0.30221 3.89757,0.28942 10.23857,-0.164 z"
         style="fill:#db0028;fill-opacity:1;stroke:none" /><path
         transform="matrix(0.28222222,0,0,0.28222222,-3.3493983e-6,0)"
         inkscape:connector-curvature="0"
         id="path28789"
         d="m -157.73702,186.02672 c -7.17598,-1.47036 -13.48575,-3.89157 -18.11065,-6.9495 -2.82001,-1.86456 -7.45526,-6.32489 -9.35583,-9.00277 -2.99835,-4.22464 -5.6862,-10.52016 -6.90671,-16.17698 -0.73256,-3.39525 -1.1988,-16.49463 -0.57333,-16.10807 0.24923,0.15404 0.41737,0.0217 0.41737,-0.32838 0,-0.32248 -0.16306,-0.48554 -0.36237,-0.36237 -0.50739,0.31359 -0.45381,-1.00588 0.19304,-4.75395 1.65431,-9.58557 5.25779,-16.80206 11.31781,-22.66554 7.3678,-7.12887 16.36553,-10.796423 30.13528,-12.283426 11.3241,-1.222896 26.25427,1.065195 35.836,5.491966 1.68612,0.77899 3.20593,1.41635 3.37736,1.41635 0.17143,0 0.3117,-8.805628 0.3117,-19.568058 l 0,-19.568053 13.22655,0 13.226554,0 0,59.615111 0,59.61511 -11.674768,-0.0956 -11.674766,-0.0956 -0.73645,-3.68832 c -0.40505,-2.02857 -0.84619,-3.79615 -0.9803,-3.92796 -0.13412,-0.1318 -1.19406,0.40495 -2.35542,1.19279 -3.25187,2.20598 -8.26275,4.62895 -12.44831,6.01927 -7.13699,2.37071 -12.61996,3.13034 -22.27667,3.08633 -5.29951,-0.0242 -7.28469,-0.18587 -10.58609,-0.86232 l 0,0 z m 29.24821,-20.67595 c 4.04417,-0.71044 8.68235,-2.13831 13.22656,-4.07181 l 3.26134,-1.38766 0.2241,-4.14889 c 0.12326,-2.2819 0.24556,-10.19713 0.27178,-17.5894 l 0.0477,-13.44051 -3.53313,-1.50321 c -8.75398,-3.72449 -14.07411,-4.81855 -23.82591,-4.89968 -7.61806,-0.0634 -10.51055,0.44359 -15.3365,2.68803 -5.68846,2.64558 -9.76948,7.96017 -11.16487,14.53969 -0.7959,3.75285 -0.51268,12.35162 0.49928,15.1584 1.11913,3.10403 2.42358,5.47234 4.13812,7.51304 3.43434,4.08765 7.48883,6.24567 14.1335,7.52258 3.43545,0.66019 13.31927,0.45189 18.05805,-0.38058 z"
         style="fill:#db0028;fill-opacity:1;stroke:none" /><path
         transform="matrix(0.28222222,0,0,0.28222222,-3.3493983e-6,0)"
         inkscape:connector-curvature="0"
         id="path28791"
         d="m -156.21022,186.40018 c -12.04923,-2.33822 -19.35282,-5.90853 -25.76929,-12.59712 -3.46335,-3.61024 -5.18279,-6.17225 -7.1064,-10.58871 -3.20561,-7.35988 -4.10627,-13.04496 -3.80737,-24.0328 0.15544,-5.71411 0.33288,-7.36958 1.11659,-10.41744 1.48882,-5.79001 2.99959,-9.26796 5.9358,-13.66484 1.88073,-2.81633 6.98002,-7.84842 9.91417,-9.78351 15.17567,-10.008475 41.06909,-11.058006 60.87559,-2.46745 l 3.12985,1.35749 0.23196,-3.26789 c 0.12758,-1.797338 0.23197,-10.580856 0.23197,-19.518929 l 0,-16.251042 13.22655,0 13.226554,0 0,59.610091 0,59.61009 -11.777069,0 c -10.633165,0 -11.777065,-0.0572 -11.777065,-0.5893 0,-1.20749 -1.52216,-7.0205 -1.83835,-7.0205 -0.18066,0 -1.51238,0.76118 -2.95937,1.69151 -5.06181,3.25444 -11.96834,5.9367 -19.11879,7.42508 -4.53606,0.94418 -19.79917,1.2691 -23.73533,0.50527 l 0,0 z m 31.02072,-21.86139 c 2.31288,-0.60051 6.17986,-1.87508 8.59327,-2.83237 3.81116,-1.51172 4.41085,-1.86212 4.56155,-2.66538 0.0954,-0.50867 0.27762,-8.42593 0.40485,-17.59393 l 0.23132,-16.66908 -1.5695,-0.66665 c -11.07546,-4.70428 -17.24131,-5.91603 -28.34684,-5.57092 -6.9681,0.21655 -8.67603,0.57674 -13.09397,2.76147 -5.14646,2.54498 -9.00432,7.33412 -10.57196,13.124 -0.84805,3.13217 -0.84693,11.8535 0.002,15.07205 0.98837,3.7475 2.9899,7.26291 5.64945,9.92246 2.83673,2.83673 5.69268,4.38991 10.34199,5.62442 3.10775,0.82518 3.72817,0.86472 11.43932,0.72914 7.64491,-0.13442 8.4156,-0.21145 12.3586,-1.23521 l 0,0 z"
         style="fill:#db0028;fill-opacity:1;stroke:none" /><path
         transform="matrix(0.28222222,0,0,0.28222222,-3.3493983e-6,0)"
         inkscape:connector-curvature="0"
         id="path28793"
         d="m -156.57259,186.38286 c -6.27352,-1.10708 -12.91192,-3.45381 -17.73601,-6.26984 -4.06988,-2.37576 -10.37674,-8.63873 -12.66329,-12.57517 -2.01729,-3.47289 -3.60869,-7.47426 -4.82803,-12.13944 -0.78262,-2.99429 -0.92507,-4.48562 -1.09403,-11.45357 -0.15949,-6.57758 -0.0821,-8.68181 0.43258,-11.75976 3.9179,-23.43077 22.23381,-35.974489 51.10838,-35.001787 9.66118,0.325458 17.55504,1.9477 25.29398,5.198087 2.15274,0.90416 3.98933,1.56867 4.0813,1.4767 0.092,-0.092 0.27334,-8.834889 0.40302,-19.428688 l 0.23578,-19.261453 13.167332,0 13.167332,0 0,59.610091 0,59.61009 -11.751377,0 -11.751377,0 -0.41576,-2.08364 c -0.48861,-2.4487 -1.09714,-4.88183 -1.30716,-5.22648 -0.0817,-0.13413 -1.97637,0.80549 -4.2103,2.08805 -5.81686,3.33962 -12.158,5.67407 -18.75942,6.90618 -4.345,0.81097 -19.40358,1.0111 -23.37295,0.31063 l 0,0 z m 29.1709,-21.4408 c 3.22375,-0.64779 10.38827,-2.99252 13.17367,-4.31134 l 1.97771,-0.9364 0.20709,-4.05041 c 0.1139,-2.22772 0.25154,-10.07712 0.30588,-17.44311 l 0.0988,-13.3927 -2.89897,-1.21612 c -10.11013,-4.24121 -19.4453,-5.74113 -29.89564,-4.80347 -4.85068,0.43523 -6.6861,0.93497 -10.18303,2.77255 -4.66975,2.45389 -7.87279,6.17553 -9.78589,11.37032 -0.79886,2.16921 -0.86743,2.88539 -0.86743,9.05929 0,7.17563 0.0746,7.59626 2.11965,11.95825 1.45238,3.09777 6.058,7.78458 8.99354,9.15208 2.25375,1.04988 5.2299,1.98141 7.85001,2.45703 2.50647,0.45499 15.71703,0.0245 18.90461,-0.61597 z"
         style="fill:#db0028;fill-opacity:1;stroke:none" /><path
         transform="matrix(0.28222222,0,0,0.28222222,-3.3493983e-6,0)"
         inkscape:connector-curvature="0"
         id="path28795"
         d="m -53.115566,142.17185 0,-41.85389 12.682997,0 12.682998,0 0,41.85389 0,41.85389 -12.682998,0 -12.682997,0 0,-41.85389 z"
         style="fill:#db0028;fill-opacity:1;stroke:none" /><path
         transform="matrix(0.28222222,0,0,0.28222222,-3.3493983e-6,0)"
         inkscape:connector-curvature="0"
         id="path28797"
         d="m -53.477938,141.99067 0,-42.397452 13.226555,0 13.226554,0 0,42.397452 0,42.39745 -13.226554,0 -13.226555,0 0,-42.39745 z"
         style="fill:#db0028;fill-opacity:1;stroke:none" /><path
         transform="matrix(0.28222222,0,0,0.28222222,-3.3493983e-6,0)"
         inkscape:connector-curvature="0"
         id="path28799"
         d="m -53.477938,141.99067 0,-42.397452 13.226555,0 13.226554,0 0,42.397452 0,42.39745 -13.226554,0 -13.226555,0 0,-42.39745 z"
         style="fill:#db0028;fill-opacity:1;stroke:none" /><path
         transform="matrix(0.28222222,0,0,0.28222222,-3.3493983e-6,0)"
         inkscape:connector-curvature="0"
         id="path28801"
         d="m -53.477938,141.99067 0,-42.397452 13.226555,0 13.226554,0 0,42.397452 0,42.39745 -13.226554,0 -13.226555,0 0,-42.39745 z"
         style="fill:#db0028;fill-opacity:1;stroke:none" /><path
         transform="matrix(0.28222222,0,0,0.28222222,-3.3493983e-6,0)"
         inkscape:connector-curvature="0"
         id="path28803"
         d="m -53.115566,76.763823 0,-10.871141 12.682997,0 12.682998,0 0,10.871141 0,10.87114 -12.682998,0 -12.682997,0 0,-10.87114 z"
         style="fill:#db0028;fill-opacity:1;stroke:none" /><path
         transform="matrix(0.28222222,0,0,0.28222222,-3.3493983e-6,0)"
         inkscape:connector-curvature="0"
         id="path28805"
         d="m -53.477938,76.768343 0,-11.600404 13.231645,0 13.231645,0 -0.09568,11.505291 -0.09568,11.50529 -13.135962,0.09511 -13.135962,0.09511 0,-11.600403 z"
         style="fill:#db0028;fill-opacity:1;stroke:none" /><path
         transform="matrix(0.28222222,0,0,0.28222222,-3.3493983e-6,0)"
         inkscape:connector-curvature="0"
         id="path28807"
         d="m -53.477938,76.763823 0,-11.595884 13.226555,0 13.226554,0 0,11.595884 0,11.595883 -13.226554,0 -13.226555,0 0,-11.595883 z"
         style="fill:#db0028;fill-opacity:1;stroke:none" /><path
         transform="matrix(0.28222222,0,0,0.28222222,-3.3493983e-6,0)"
         inkscape:connector-curvature="0"
         id="path28809"
         d="m -53.477938,76.763823 0,-11.595884 13.226555,0 13.226554,0 0,11.595884 0,11.595883 -13.226554,0 -13.226555,0 0,-11.595883 z"
         style="fill:#db0028;fill-opacity:1;stroke:none" /><path
         transform="matrix(0.28222222,0,0,0.28222222,-3.3493983e-6,0)"
         inkscape:connector-curvature="0"
         id="path28811"
         d="m -53.477938,141.99067 0,-42.397452 13.226555,0 13.226554,0 0,42.397452 0,42.39745 -13.226554,0 -13.226555,0 0,-42.39745 z"
         style="fill:#db0028;fill-opacity:1;stroke:none" /><path
         transform="matrix(0.28222222,0,0,0.28222222,-3.3493983e-6,0)"
         inkscape:connector-curvature="0"
         id="path28813"
         d="m -154.57955,186.68996 c -8.01482,-1.20374 -14.80768,-3.51669 -20.22175,-6.88544 -3.27027,-2.03484 -8.56693,-7.00173 -10.76252,-10.09244 -2.82957,-3.98318 -5.33724,-9.84589 -6.57594,-15.37395 -0.73922,-3.29905 -1.07638,-16.98351 -0.52099,-21.14613 2.02068,-15.14486 11.00587,-26.75912 24.84431,-32.11377 7.64155,-2.956819 12.98017,-3.824711 23.56448,-3.830845 11.48322,-0.0067 17.86538,1.099061 27.40329,4.747645 3.14241,1.20208 4.45969,1.55664 4.64848,1.25118 0.25293,-0.40926 0.74284,-22.095765 0.74284,-32.883191 l 0,-5.19508 13.22655,0 13.226554,0 0,59.610091 0,59.61009 -11.770166,0 -11.770168,0 -0.22592,-0.99653 c -0.51024,-2.25059 -1.27855,-5.37541 -1.43092,-5.81975 -0.11473,-0.33456 -1.47466,0.22112 -4.60487,1.88161 -7.75322,4.11287 -14.67473,6.34677 -21.96486,7.08913 -3.48412,0.35479 -15.75145,0.45631 -17.8084,0.14738 l 0,0 z m 29.50781,-22.38681 c 3.90789,-1.04702 10.72656,-3.51806 11.98721,-4.34407 0.74468,-0.48793 0.79823,-0.87165 1.02426,-7.33918 0.13117,-3.75339 0.23896,-11.57459 0.23952,-17.38045 l 0.001,-10.55613 -4.80142,-1.82035 c -7.797,-2.95605 -12.16363,-3.80056 -20.59774,-3.98362 -7.96452,-0.17287 -11.1719,0.17797 -14.79391,1.6182 -6.21953,2.4731 -10.98212,7.62566 -12.67078,13.70831 -0.22257,0.80171 -0.40159,4.28561 -0.40271,7.83723 -0.002,5.35827 0.1145,6.77118 0.71737,8.72305 0.89214,2.88842 2.91546,6.03737 5.4775,8.52479 3.24228,3.14785 4.48455,3.86346 9.38507,5.40625 2.61622,0.82364 3.05637,0.85028 11.77707,0.71283 8.41431,-0.13262 9.31546,-0.21143 12.65754,-1.10686 l 0,0 z"
         style="fill:#db0028;fill-opacity:1;stroke:none" /><path
         transform="matrix(0.28222222,0,0,0.28222222,-3.3493983e-6,0)"
         inkscape:connector-curvature="0"
         id="path28815"
         d="m -289.56288,186.04656 c -8.89371,-1.85366 -14.20745,-4.43861 -19.03664,-9.26067 -3.6689,-3.66348 -5.7007,-7.27084 -7.74278,-13.74694 l -1.30436,-4.13652 0,-29.6546 0,-29.654612 13.01653,0 13.01653,0 0.19886,2.264822 c 0.10938,1.24565 0.29942,11.60281 0.42232,23.01591 0.28632,26.58944 0.39242,28.2051 2.08649,31.77233 1.51279,3.1855 3.58033,5.35647 6.6692,7.00282 3.44694,1.8372 5.70281,2.25888 12.04626,2.25175 8.43344,-0.009 12.41211,-0.78744 20.7209,-4.05167 4.27598,-1.67989 4.59559,-1.87307 4.80142,-2.90223 0.12128,-0.60639 0.22051,-5.13198 0.22051,-10.05686 0,-4.92488 0.10823,-18.0314 0.24051,-29.1256 l 0.2405,-20.171272 13.34842,0 13.34842,0 0,42.397452 0,42.39745 -11.74617,0 -11.74616,0 -0.64815,-2.7493 c -0.35648,-1.51212 -0.81882,-2.9772 -1.02742,-3.25576 -0.313,-0.41794 -1.13923,-0.15171 -4.72774,1.52343 -5.80397,2.70933 -9.28218,3.96323 -14.49485,5.22542 -5.80431,1.40546 -9.60029,1.7909 -17.39383,1.76615 -5.34243,-0.017 -7.24394,-0.17104 -10.50877,-0.8515 l 0,0 z"
         style="fill:#db0028;fill-opacity:1;stroke:none" /><path
         transform="matrix(0.28222222,0,0,0.28222222,-3.3493983e-6,0)"
         inkscape:connector-curvature="0"
         id="path28817"
         d="m -483.63504,183.21041 c 1.78342,-3.47749 57.45096,-110.164324 59.27861,-113.607459 l 2.16609,-4.080716 14.69663,0.09463 14.69663,0.09463 13.1865,25.18481 c 32.12801,61.361035 48.31088,92.558755 48.31088,93.134825 0,0.22878 -5.50639,0.35699 -15.33231,0.35699 l -15.33232,0 -3.13412,-6.06972 c -1.72377,-3.33835 -4.51207,-8.6788 -6.19622,-11.86767 l -3.06209,-5.79794 -4.10924,-0.18118 c -2.26008,-0.0997 -17.32275,-0.13172 -33.47258,-0.0712 l -29.36334,0.10994 -6.08748,11.93891 -6.08748,11.93891 -15.38107,0 -15.38107,0 0.60398,-1.17771 z m 95.35245,-45.0684 c 1.98292,-0.1504 2.62719,-0.33024 2.62719,-0.73337 0,-0.51275 -18.38641,-37.18212 -20.6912,-41.265992 -0.61615,-1.09175 -1.24199,-1.985 -1.39077,-1.985 -0.38948,0 -3.81248,6.506762 -13.95234,26.521922 l -8.93853,17.64382 1.55948,0.1458 c 2.1592,0.20187 37.55434,-0.0821 40.78617,-0.32718 l 0,0 z"
         style="fill:#db0028;fill-opacity:1;stroke:none" /><path
         transform="matrix(0.28222222,0,0,0.28222222,-3.3493983e-6,0)"
         inkscape:connector-curvature="0"
         id="path28842"
         d="m -2512.0045,305.93458 0,-56.11552 7.687,0 7.6871,0 0,49.96588 0,49.96587 32.0294,0 32.0294,0 0,6.14964 0,6.14965 -39.7165,0 -39.7164,0 0,-56.11552 z"
         style="fill:#b1b2b2;fill-opacity:0;stroke:none" /><path
         transform="matrix(0.28222222,0,0,0.28222222,-3.3493983e-6,0)"
         inkscape:connector-curvature="0"
         id="path28844"
         d="m -2512.0045,305.93458 0,-56.11552 7.687,0 7.6871,0 0,49.96588 0,49.96587 32.0294,0 32.0294,0 0,6.14964 0,6.14965 -39.7165,0 -39.7164,0 0,-56.11552 z"
         style="fill:#b1b2b2;fill-opacity:0;stroke:none" /><path
         sodipodi:nodetypes="cscccccccccccsccccccccccccccsssscccscscc"
         inkscape:connector-curvature="0"
         id="path28940"
         d="m -300.85315,102.91399 c -1.04614,-0.0987 -1.64431,-0.18509 -2.24177,-0.32366 -2.11467,-0.49047 -3.52939,-1.58592 -4.27166,-3.307588 -0.0778,-0.18052 -0.22564,-0.61575 -0.32851,-0.96719 l -0.187,-0.638983 -0.0243,-2.205615 c -0.0133,-1.21309 -0.0265,-4.346928 -0.029,-6.964081 -0.003,-2.617157 -0.0149,-4.858479 -0.0279,-4.980715 l -0.0231,-0.22225 -2.43549,0 -2.43549,0 0,-1.838522 0,-1.83852 2.50365,-0.02633 c 1.37699,-0.01448 2.51039,-0.0331 2.51863,-0.04135 0.008,-0.0083 0.0575,-0.40973 0.10939,-0.892161 l 0.45229,-4.686675 1.72954,-0.0093 2.08749,0.0034 0,4.71906 0,0.871178 5.44172,0.02557 5.44173,0 0,1.869607 0,1.84404 -5.44703,0 -5.44701,0 0.0263,5.269975 c 0.0346,6.974219 0.0578,7.637083 0.29202,8.332165 0.3624,1.075512 1.30268,1.758552 2.85242,2.072052 0.68574,0.13871 1.22636,0.17358 2.35404,0.15184 1.47015,-0.0284 2.32602,-0.16891 3.99542,-0.65618 0.60872,-0.17767 0.93421,-0.25695 0.95789,-0.23332 0.0223,0.0223 0.0409,0.70745 0.0493,1.823423 l 0.0133,1.78763 -0.10349,0.0394 c -0.21564,0.0822 -1.38881,0.40354 -1.85713,0.5087 -1.1303,0.25381 -2.41808,0.4351 -3.55648,0.50068 -0.58937,0.0339 -2.10366,0.0425 -2.40953,0.0137 z"
         style="fill:#b1b2b2;fill-opacity:1;stroke:none" /><path
         inkscape:connector-curvature="0"
         id="path29060"
         d="m -709.14483,86.31452 0,-16.056274 2.35218,0 2.35221,0 0,14.113157 0,14.113155 9.05084,0 9.05081,0 0,1.943122 0,1.94311 -11.40302,0 -11.40302,0 0,-16.05627 z"
         style="fill:#b1b2b2;fill-opacity:1;stroke:none" /><path
         inkscape:connector-curvature="0"
         id="path29062"
         d="m -686.71115,81.150655 c 0.0322,-0.08397 0.76742,-1.384066 1.63375,-2.889107 0.86634,-1.50504 1.60438,-2.83066 1.64011,-2.945827 0.0357,-0.115163 -0.1423,-1.239791 -0.39559,-2.499168 -0.25327,-1.259374 -0.46053,-2.356177 -0.46053,-2.437338 0,-0.225282 4.9256,-0.126332 5.36914,0.107859 0.78567,0.414822 1.1761,1.149536 1.1761,2.213238 0,1.314086 -0.5376,2.518164 -1.91177,4.281805 -0.81452,1.045348 -2.49843,3.007724 -3.29119,3.835431 l -0.4653,0.485777 -1.67666,0 c -1.44478,0 -1.66855,-0.02111 -1.61806,-0.15267 z"
         style="fill:#b1b2b2;fill-opacity:1;stroke:none" /><path
         inkscape:connector-curvature="0"
         id="path29064"
         d="m -664.62602,102.87926 c -4.08576,-0.42995 -6.91843,-2.17456 -7.80531,-4.807202 -0.19163,-0.568841 -0.2131,-0.827018 -0.18195,-2.187188 0.0387,-1.689921 0.16759,-2.196603 0.80281,-3.155606 0.66114,-0.998146 2.39982,-2.142377 4.13583,-2.721805 2.45293,-0.818718 4.8446,-1.064779 10.22894,-1.052378 2.02605,0.0047 3.74015,-0.02639 3.80913,-0.06903 0.15573,-0.09625 0,-1.536153 -0.2492,-2.315854 -0.62645,-1.953776 -2.10016,-3.067264 -4.53351,-3.425413 -1.06296,-0.15645 -4.96875,-0.158482 -6.15388,-0.0032 -1.45963,0.191248 -2.87593,0.498235 -4.40896,0.955661 l -1.47659,0.440583 -0.0648,-0.978067 c -0.0356,-0.537935 -0.065,-1.377445 -0.0653,-1.865573 l 0,-0.887507 0.56862,-0.212751 c 0.94931,-0.355182 2.5847,-0.81799 3.8801,-1.098039 1.15443,-0.24958 1.43651,-0.26804 4.7555,-0.311218 3.3079,-0.04304 3.59537,-0.03221 4.60211,0.173271 4.33271,0.884326 6.83805,2.879135 7.66019,6.099209 0.19496,0.763586 0.21031,1.252792 0.27816,8.863135 l 0.0718,8.054952 -2.0318,-0.0278 -2.03183,-0.0278 -0.1434,-0.80163 c -0.11831,-0.6614 -0.17278,-0.79241 -0.31135,-0.74887 -0.0924,0.029 -0.69723,0.28395 -1.34408,0.56651 -1.72415,0.75317 -3.77416,1.30583 -5.7244,1.54324 -0.96929,0.11801 -3.14655,0.11818 -4.2663,2.9e-4 l 0,4e-5 z m 6.20674,-3.937508 c 1.34885,-0.239354 2.42308,-0.585724 3.69505,-1.19145 l 1.08721,-0.517722 0.0633,-0.462111 c 0.0348,-0.254161 0.0633,-1.330091 0.0633,-2.390953 l 0,-1.928842 -2.27547,5.65e-4 c -2.68865,5.64e-4 -5.6983,0.147142 -7.33784,0.357234 -3.2959,0.42234 -4.70862,1.373253 -4.70213,3.165043 0.006,1.777842 1.48584,2.854782 4.34419,3.162366 0.89913,0.0968 4.11892,-0.0267 5.06233,-0.19409 l 0,10e-6 z"
         style="fill:#b1b2b2;fill-opacity:1;stroke:none" /><path
         sodipodi:nodetypes="cssscsccccccccccscssscccccc"
         inkscape:connector-curvature="0"
         id="path29066"
         d="m -634.06331,100.74072 c -0.74118,-1.406683 -5.0849,-9.972677 -8.92295,-17.430237 -0.96165,-1.868532 -1.82126,-3.771313 -1.85071,-3.747473 -0.19873,0.160821 1.63941,0.03336 2.95459,0.03336 l 2.21317,0 3.9818,8.316719 c 3.23231,6.751269 4.26587,8.484529 4.33177,8.47088 0.0712,-0.01475 -0.009,0.07059 -0.0491,0.172979 -0.0444,0.114764 -0.0261,0.147322 0.0552,0.09758 0.0821,-0.0503 0.0992,-0.01632 0.0526,0.104249 -0.0466,0.120554 -0.0296,0.154545 0.0525,0.104247 0.0821,-0.0503 0.0993,-0.01632 0.0525,0.104247 -0.0466,0.120554 -0.0295,0.154547 0.0525,0.104248 0.0822,-0.0503 0.0992,-0.01631 0.0525,0.104247 -0.0436,0.112573 0.042,0.110784 0.042,0.110784 0.26627,0.487152 -0.3059,0.777252 0.008,-0.02433 0.2879,-0.389287 1.72675,-3.942576 4.3526,-8.818459 l 4.35703,-8.846403 2.88775,-0.0024 c 1.30714,-0.0011 2.09518,0.01597 2.09518,0.03856 0,0.0427 -5.30194,10.644264 -9.26873,18.312499 l -2.29193,4.430553 -2.04679,0.0281 -2.04684,0.0281 -0.2214,-0.0559 -0.53691,-1.07383 z"
         style="fill:#b1b2b2;fill-opacity:1;stroke:none" /><path
         inkscape:connector-curvature="0"
         id="path29068"
         d="m -539.64292,102.92109 c -2.34809,-0.28583 -3.7182,-0.65509 -5.26884,-1.42 -3.71438,-1.832234 -5.7518,-5.195557 -5.94789,-9.818715 -0.22778,-5.369758 1.85265,-9.10899 6.23183,-11.200762 2.07219,-0.989813 4.06019,-1.357232 7.38822,-1.365487 3.05384,-0.0076 4.6925,0.213382 7.10613,0.958201 l 1.02426,0.31608 0,1.921679 c 0,1.056925 -0.024,1.945734 -0.0534,1.975135 -0.0294,0.0294 -0.57014,-0.101645 -1.20167,-0.291211 -3.37549,-1.013248 -7.64408,-1.32882 -10.04562,-0.742667 -0.97166,0.237151 -2.47627,0.955401 -3.11923,1.488984 -1.53029,1.27002 -2.3834,3.149939 -2.5229,5.559564 -0.25775,4.452292 1.82282,7.444384 5.90285,8.488947 2.48567,0.636384 6.43718,0.215584 10.06695,-1.072063 0.9385,-0.33292 1.30184,-0.422224 1.33771,-0.328772 0.0271,0.07056 0.0367,0.974755 0.0212,2.009299 l -0.0279,1.881008 -0.81816,0.29749 c -1.16707,0.42436 -3.28213,0.946 -4.65325,1.14762 -1.118,0.1644 -4.63437,0.29134 -5.42025,0.19567 l 0,0 z"
         style="fill:#b1b2b2;fill-opacity:1;stroke:none" /><path
         inkscape:connector-curvature="0"
         id="path29070"
         d="m -582.93502,102.40551 c -0.0385,-0.0385 -0.0701,-5.193775 -0.0701,-11.456063 l 0,-11.385976 1.99229,0 c 1.98284,0 1.99255,0.0011 2.04326,0.230104 0.0279,0.12656 0.10945,0.563679 0.18094,0.971378 l 0.12996,0.74127 1.27897,-0.60829 c 2.96176,-1.408647 5.67561,-1.935765 9.30806,-1.807944 5.6734,0.199639 8.78239,2.302296 9.65324,6.528621 0.14032,0.680991 0.16245,1.881511 0.16245,8.820723 l 0,8.032457 -2.28436,0 -2.28434,0 -0.0679,-5.232558 c -0.0373,-2.877905 -0.0678,-6.322286 -0.0678,-7.654183 0,-2.098181 -0.0254,-2.495793 -0.19104,-2.976857 -0.6819,-1.981982 -1.82993,-3.008893 -3.88459,-3.474754 -2.97425,-0.674365 -6.73944,-0.138549 -10.12949,1.441506 l -1.08413,0.505294 -0.0511,8.670205 -0.0511,8.670207 -2.25653,0.0275 c -1.2411,0.0151 -2.28809,-0.004 -2.32664,-0.0426 l 0,0 z"
         style="fill:#b1b2b2;fill-opacity:1;stroke:none" /><path
         inkscape:connector-curvature="0"
         id="path29072"
         d="m -512.38819,102.82532 c -3.77641,-0.49781 -6.58131,-1.88911 -8.39315,-4.163212 -1.66169,-2.085689 -2.49842,-4.731864 -2.49806,-7.900156 0,-2.820021 0.56936,-4.823572 1.94601,-6.852039 0.4872,-0.71788 1.57672,-1.861295 2.24657,-2.357679 2.34123,-1.734964 5.7531,-2.63376 9.35765,-2.465123 3.646,0.17058 6.47369,1.225211 8.5259,3.179888 2.19896,2.094461 3.18282,4.648614 3.18358,8.264849 l 0,1.508469 -10.33272,0 -10.33272,0 0.065,0.536914 c 0.20013,1.653069 0.76502,2.857918 1.834,3.9118 1.48429,1.463292 3.4914,2.272627 6.23843,2.515541 2.85183,0.25218 5.7815,-0.182144 9.35338,-1.386652 0.75701,-0.255275 1.43581,-0.46414 1.50848,-0.46414 0.10315,0 0.13208,0.411743 0.13208,1.879392 l 0,1.879388 -0.53354,0.22953 c -3.35641,1.44388 -8.63625,2.16635 -12.30125,1.68323 z m 9.71886,-14.850205 c -0.13154,-0.899078 -0.63201,-1.73541 -1.64166,-2.743338 -0.82702,-0.825647 -1.05878,-0.991317 -2.10007,-1.501256 -1.33644,-0.654465 -2.12612,-0.872154 -3.48609,-0.960966 -4.06815,-0.265662 -8.23892,2.226448 -8.62646,5.154427 l -0.0711,0.536914 7.99824,0 7.9982,0 -0.0711,-0.485781 z"
         style="fill:#b1b2b2;fill-opacity:1;stroke:none" /><path
         inkscape:connector-curvature="0"
         id="path29074"
         d="m -607.49781,102.83825 c -1.69644,-0.25402 -2.82589,-0.58244 -3.98851,-1.1598 -2.57522,-1.27885 -3.93736,-3.197972 -3.93736,-5.547361 0,-0.940991 0.19555,-1.739573 0.67996,-2.776705 0.86571,-1.853469 3.11167,-3.169768 6.58116,-3.85705 2.50792,-0.496807 3.43857,-0.569595 7.31224,-0.571917 2.02494,-0.0011 3.92893,0.03417 4.23108,0.07862 l 0.54937,0.08083 -0.0682,-0.695495 c -0.18155,-1.852227 -0.63548,-2.968441 -1.54528,-3.799961 -1.272,-1.162535 -3.0925,-1.648223 -6.18459,-1.649978 -3.03479,-0.0017 -5.13359,0.311234 -7.80505,1.163836 -0.76544,0.244289 -1.41625,0.419608 -1.44625,0.3896 -0.03,-0.03001 -0.0546,-0.870348 -0.0546,-1.867423 0,-1.630541 0.0181,-1.8202 0.17896,-1.885862 0.58298,-0.237801 2.05277,-0.706589 2.88911,-0.921487 1.56636,-0.402471 2.69753,-0.566185 4.60211,-0.666061 3.00033,-0.157339 4.55357,-0.127008 5.79859,0.113233 4.59526,0.886709 7.14102,2.890498 8.0014,6.297995 0.20416,0.808485 0.2109,1.092623 0.2109,8.885459 l 0,8.050277 -1.91756,-0.0746 c -1.05463,-0.041 -1.93313,-0.0896 -1.95218,-0.1079 -0.0192,-0.0183 -0.0787,-0.2325 -0.13245,-0.47593 -0.0538,-0.24344 -0.14314,-0.61375 -0.19854,-0.82291 l -0.10073,-0.3803 -1.09632,0.54563 c -2.34132,1.16525 -4.6237,1.671 -7.89723,1.74993 -1.19123,0.0287 -2.0975,-0.003 -2.71012,-0.0947 z m 5.67594,-3.748718 c 1.58801,-0.17724 3.37682,-0.722834 4.84694,-1.47832 l 0.829,-0.426009 0.0274,-2.367904 0.0274,-2.367903 -2.43078,8.46e-4 c -2.63412,0.0011 -5.8017,0.139181 -7.18628,0.313482 -1.18674,0.149391 -2.68455,0.551484 -3.29799,0.885359 -0.9041,0.49208 -1.50868,1.466322 -1.50868,2.431141 0,0.97019 0.67742,1.893203 1.76796,2.408954 1.46456,0.692624 4.07227,0.918674 6.92494,0.600274 l 0,0 z"
         style="fill:#b1b2b2;fill-opacity:1;stroke:none" /><path
         transform="matrix(0.28222222,0,0,0.28222222,-3.3493983e-6,0)"
         inkscape:connector-curvature="0"
         id="path29076"
         d="m -2224.0366,320.98597 c 0.079,-0.23667 0.3372,-0.4949 0.574,-0.57384 0.2648,-0.0883 0.3458,0.0774 0.2103,0.43032 -0.2527,0.65869 -1.0017,0.79574 -0.7843,0.14352 z"
         style="fill:#b1b2b2;fill-opacity:1;stroke:none" /><path
         transform="matrix(0.28222222,0,0,0.28222222,-3.3493983e-6,0)"
         inkscape:connector-curvature="0"
         id="path29078"
         d="m -1685.7983,338.98294 0,-56.35711 6.4274,0.099 c 5.3873,0.0829 6.4397,0.18692 6.5031,0.64251 0.5955,4.27674 0.9619,5.79795 1.3965,5.79795 0.2702,0 1.4657,-0.57104 2.6565,-1.26898 15.7236,-9.21535 41.6466,-9.40088 56.9402,-0.40754 8.7697,5.15701 14.8252,13.95539 17.4898,25.41184 1.0005,4.30188 1.0751,14.15235 0.1384,18.26749 -2.2733,9.98699 -6.8807,17.89692 -13.4609,23.10996 -8.4583,6.70089 -22.0618,10.37717 -36.2149,9.78693 -9.0126,-0.37586 -15.3314,-1.84091 -22.262,-5.16164 -2.2667,-1.08604 -4.1828,-1.97462 -4.2579,-1.97462 -0.075,0 -0.1366,8.64256 -0.1366,19.20568 l 0,19.20568 -7.6098,0 -7.6098,0 0,-56.3571 z m 54.8277,12.18291 c 6.2246,-1.6433 10.1182,-3.75098 13.8327,-7.48798 1.4001,-1.40847 3.1612,-3.60988 3.9137,-4.89202 4.4251,-7.53981 5.2118,-19.56323 1.9025,-29.07905 -2.0082,-5.77447 -6.0246,-10.37113 -11.4235,-13.07383 -1.8108,-0.9065 -4.3862,-1.97008 -5.7231,-2.36349 -5.6786,-1.67106 -15.0679,-2.31176 -21.3385,-1.4561 -6.2429,0.8519 -13.46,3.19631 -18.4777,6.00234 l -2.2942,1.28303 0,22.25135 0,22.25135 3.5649,1.78897 c 5.6612,2.84092 11.391,4.55747 18.7209,5.60848 0.5979,0.0857 4.1039,0.10132 7.791,0.0346 5.3254,-0.0963 7.2852,-0.27472 9.5313,-0.86768 l 0,-10e-6 z"
         style="fill:#b1b2b2;fill-opacity:1;stroke:none" /><path
         inkscape:connector-curvature="0"
         id="path29080"
         d="m -434.91319,102.92183 c -0.16874,-0.0233 -0.67497,-0.0911 -1.12497,-0.1508 -4.61605,-0.61214 -7.34692,-3.118234 -7.34692,-6.74221 0,-1.702672 0.4995,-2.934603 1.66282,-4.100962 0.64358,-0.645254 0.9575,-0.866457 1.84901,-1.302854 1.19197,-0.583463 2.35656,-0.94536 3.98704,-1.238956 1.98882,-0.358114 3.45519,-0.434396 7.64613,-0.397761 l 4.01413,0.03509 0,-0.56248 c -0.004,-2.486801 -1.18426,-4.226007 -3.37097,-4.965821 -1.21246,-0.410202 -2.40961,-0.556021 -4.55419,-0.554708 -2.87717,0.0017 -5.3541,0.399189 -7.91811,1.270488 -0.58632,0.199249 -1.08337,0.344969 -1.10451,0.323819 -0.0212,-0.02114 -0.0662,-0.844386 -0.1,-1.829415 l -0.0615,-1.790968 0.29678,-0.153366 c 0.6054,-0.312854 2.59168,-0.90917 4.0296,-1.209754 1.36598,-0.285546 1.74498,-0.318792 4.80667,-0.421611 l 3.32373,-0.111625 1.44311,0.320311 c 4.57375,1.015173 6.63508,2.685045 7.65376,6.200222 l 0.24305,0.838744 0.0284,8.021718 0.0284,8.021729 -1.96502,0.0278 c -1.51971,0.0215 -1.97435,-0.002 -2.00604,-0.10227 -0.0226,-0.0715 -0.11605,-0.48395 -0.2078,-0.9165 l -0.16682,-0.78646 -0.93605,0.45559 c -1.17692,0.57282 -3.03964,1.18211 -4.68528,1.53253 -1.06776,0.22737 -1.58081,0.27553 -3.21372,0.30168 -1.06872,0.0171 -2.08119,0.0121 -2.24993,-0.0112 l 0,0 z m 5.16461,-3.821508 c 1.90392,-0.314054 3.38158,-0.784784 4.7555,-1.51495 l 0.71588,-0.380456 0.0274,-2.394339 0.0274,-2.394337 -3.96485,0.06921 c -5.10007,0.08903 -6.97066,0.307958 -8.49331,0.994007 -1.25372,0.564873 -1.76383,1.183067 -1.83862,2.228071 -0.12833,1.793776 1.20912,2.96242 3.94614,3.448054 0.89174,0.15821 3.72692,0.12574 4.82425,-0.0553 l 0,0 z"
         style="fill:#b1b2b2;fill-opacity:1;stroke:none" /><path
         inkscape:connector-curvature="0"
         id="path29082"
         d="m -410.21516,91.017626 0,-11.454155 2.14765,0 c 1.18121,0 2.14822,0.03451 2.14892,0.0767 0,0.04219 0.0691,0.836049 0.15215,1.764143 0.083,0.928093 0.15144,1.701317 0.15212,1.718276 0,0.01696 0.40262,-0.390923 0.89318,-0.906396 1.45333,-1.527226 2.67566,-2.233659 4.93538,-2.852358 0.64531,-0.176685 1.06122,-0.208988 2.65902,-0.20653 1.62481,0.0025 2.0362,0.03688 2.89441,0.241895 0.55022,0.131442 1.01564,0.25669 1.03429,0.278328 0.0782,0.09086 0.14492,4.078768 0.069,4.125699 -0.0457,0.02827 -0.62981,-0.0402 -1.29794,-0.152146 -4.87472,-0.816762 -8.01128,0.157404 -10.48634,3.256904 l -0.59743,0.748154 0,7.40782 0,7.40783 -2.35221,0 -2.35218,0 0,-11.454166 z"
         style="fill:#b1b2b2;fill-opacity:1;stroke:none" /><path
         inkscape:connector-curvature="0"
         id="path29084"
         d="m -368.29103,102.86938 c -1.99085,-0.29004 -3.1895,-1.05318 -3.88992,-2.47655 -0.68828,-1.398698 -0.66503,-0.831194 -0.66503,-16.23624 l 0,-13.899619 2.35218,0 2.35221,0 0,13.554749 c 0,13.251643 0.005,13.56352 0.20004,13.946894 0.27028,0.5298 0.72636,0.892694 1.3574,1.080094 0.74383,0.220894 2.61699,0.201004 4.06488,-0.0432 0.6455,-0.10885 1.18243,-0.18909 1.19321,-0.17831 0.0107,0.0108 0.0529,0.833958 0.0935,1.829272 l 0.074,1.80965 -0.24449,0.057 c -2.47178,0.5763 -5.22444,0.79859 -6.888,0.55623 l 0,0 z"
         style="fill:#b1b2b2;fill-opacity:1;stroke:none" /><path
         inkscape:connector-curvature="0"
         id="path29086"
         d="m -348.55703,102.91347 c -4.48852,-0.38702 -7.37622,-2.116 -8.30806,-4.974355 -0.31473,-0.965375 -0.33026,-2.81828 -0.0309,-3.688365 0.33779,-0.981795 0.73166,-1.58767 1.49355,-2.297459 1.80946,-1.685764 4.64348,-2.613338 9.14645,-2.993632 1.38196,-0.11671 6.87039,-0.06338 7.91038,0.07686 l 0.49586,0.06687 -0.0666,-0.807023 c -0.1401,-1.697561 -0.53033,-2.687348 -1.4191,-3.599572 -1.35111,-1.386727 -4.00866,-1.985614 -7.80057,-1.757892 -2.54522,0.152852 -4.42606,0.511579 -6.6824,1.274522 -0.58761,0.198684 -1.08232,0.361244 -1.09939,0.361244 -0.0172,0 -0.0311,-0.847036 -0.0311,-1.882307 l 0,-1.882309 0.84371,-0.304879 c 2.78302,-1.005637 4.09846,-1.228417 8.10485,-1.372641 l 3.17035,-0.114131 1.42375,0.284954 c 2.84977,0.570363 4.50432,1.332614 5.89224,2.714583 1.04778,1.043254 1.62055,2.059711 1.99709,3.544079 l 0.24909,0.981995 0,7.979604 0,7.979614 -1.24328,-0.0669 c -0.68382,-0.0368 -1.57226,-0.0669 -1.97431,-0.0669 l -0.73101,0 -0.13268,-0.79259 c -0.073,-0.43592 -0.1533,-0.82645 -0.1785,-0.86785 -0.0251,-0.0414 -0.41075,0.10823 -0.85674,0.33248 -2.39486,1.20411 -5.64479,1.95612 -8.31647,1.92438 -0.79595,-0.009 -1.63127,-0.0331 -1.85626,-0.0525 z m 5.42208,-3.851178 c 1.86701,-0.346143 3.09121,-0.752117 4.42132,-1.466241 l 0.84373,-0.452981 0,-2.360509 0,-2.36051 -4.06521,0.05878 c -4.04887,0.05854 -5.31464,0.152024 -7.03922,0.519884 -1.57759,0.336508 -2.49834,0.855701 -2.98469,1.683015 -0.23826,0.4053 -0.27971,0.590576 -0.27971,1.250372 0,0.683869 0.0363,0.833348 0.31005,1.276519 0.58182,0.941979 1.57454,1.509161 3.32051,1.897171 0.7311,0.16248 1.17004,0.1863 2.76126,0.14985 1.04061,-0.0238 2.26097,-0.11174 2.71196,-0.19535 l 0,0 z"
         style="fill:#b1b2b2;fill-opacity:1;stroke:none" /><path
         transform="matrix(0.28222222,0,0,0.28222222,-3.3493983e-6,0)"
         inkscape:connector-curvature="0"
         id="path29088"
         d="m -1069.2235,364.48979 c -6.864,-0.86426 -12.3104,-3.10325 -15.7237,-6.46393 -2.5383,-2.49919 -4.015,-5.02609 -5.2581,-8.99746 l -0.9416,-3.00827 0,-18.76652 c 0,-10.32158 -0.1073,-21.72786 -0.2384,-25.34729 l -0.2384,-6.58077 -8.4424,0 -8.4424,0 -0.1067,-6.43209 c -0.059,-3.53765 -0.056,-6.55439 0.01,-6.70387 0.062,-0.14948 4.0785,-0.27178 8.9265,-0.27178 l 8.8145,0 0.2386,-2.44601 c 0.1313,-1.3453 0.3174,-2.85367 0.4135,-3.35193 l 0.1749,-0.90593 7.4197,0 7.4197,0 0,3.35193 0,3.35194 19.3869,0 19.3868,0 0,6.70387 0,6.70387 -19.4124,0 -19.4125,0 0.2384,20.92694 c 0.2553,22.41321 0.4597,26.07993 1.5741,28.24249 2.0834,4.04313 6.7174,6.11797 14.5454,6.51265 5.2254,0.26345 9.6738,-0.26447 15.8556,-1.88167 2.6418,-0.69111 4.8839,-1.25656 4.9826,-1.25656 0.099,0 0.1793,2.98035 0.1793,6.62301 l 0,6.62302 -3.7143,0.99682 c -9.1951,2.4677 -19.7212,3.37344 -27.6308,2.37754 z"
         style="fill:none;stroke:none" /><path
         inkscape:connector-curvature="0"
         id="path29102"
         d="m -227.47831,86.35617 0,-16.053994 2.35024,0 2.35025,0 0,3.929496 c 0,2.161224 0.0214,4.663183 0.0474,5.559907 l 0.0474,1.630415 1.0192,-0.517689 c 3.00067,-1.524138 7.19561,-2.156857 11.03487,-1.66438 2.52104,0.323387 4.34343,1.108109 5.68199,2.446667 1.09076,1.090763 1.70238,2.315839 2.11883,4.244021 0.14664,0.678947 0.15032,0.880897 0.15581,8.569361 l 0.006,7.874026 -2.35403,0.0191 -2.35403,0.0191 0,-7.586096 0,-7.586105 -0.27269,-0.790671 c -0.70269,-2.037504 -1.79657,-2.951164 -4.10757,-3.430852 -1.06184,-0.220401 -3.50642,-0.23725 -4.83994,-0.03336 -1.08812,0.16637 -2.64265,0.55221 -3.56207,0.884118 -0.85861,0.309953 -2.45309,1.092964 -2.5059,1.23059 -0.0211,0.05505 -0.061,3.97241 -0.0885,8.705249 l -0.0501,8.605157 -2.33841,0 -2.33842,0 0,-16.053987 z"
         style="fill:#b1b2b2;fill-opacity:1;stroke:none" /><path
         inkscape:connector-curvature="0"
         id="path29104"
         d="m -245.55713,102.84455 c -3.58661,-0.23343 -6.54776,-1.48529 -8.5537,-3.616199 -1.60269,-1.70252 -2.51278,-3.754297 -2.87489,-6.481354 -0.11735,-0.883798 -0.055,-3.526016 0.10384,-4.402158 0.65281,-3.600162 2.62459,-6.259923 5.79263,-7.813757 2.19972,-1.078902 4.35927,-1.498256 7.73773,-1.50256 2.95241,-0.0038 4.96402,0.287977 7.18535,1.042061 0.45918,0.15588 0.84971,0.283419 0.86786,0.283419 0.0332,0 -0.0502,3.844589 -0.0841,3.878549 -0.01,0.01002 -0.44041,-0.111176 -0.95642,-0.26932 -1.34539,-0.412326 -2.22947,-0.623222 -3.5054,-0.836215 -0.99246,-0.165673 -1.38188,-0.190865 -3.39881,-0.21988 l -2.27794,-0.03277 -0.84284,0.215578 c -1.7357,0.44395 -2.87135,1.028621 -3.81585,1.964546 -0.87425,0.866301 -1.39428,1.814926 -1.86323,3.398817 -0.19825,0.669623 -0.2034,0.730885 -0.2034,2.422561 l 0,1.735568 0.23837,0.795469 c 0.3188,1.063896 0.91786,2.256655 1.4616,2.910102 1.12505,1.35205 2.72398,2.19257 4.93599,2.59472 1.3284,0.2415 4.01284,0.10974 6.00975,-0.29497 1.10655,-0.22427 1.79766,-0.42496 3.33574,-0.96869 0.67408,-0.23829 1.25091,-0.41762 1.28184,-0.39851 0.0309,0.0191 0.0562,0.90912 0.0562,1.9778 l 0,1.943053 -0.41581,0.15808 c -2.63059,1.00006 -5.04087,1.46383 -8.00892,1.54103 -0.71592,0.0186 -1.70845,0.007 -2.20561,-0.025 l 0,0 z"
         style="fill:#b1b2b2;fill-opacity:1;stroke:none" /><path
         inkscape:connector-curvature="0"
         id="path29108"
         d="m -275.85723,102.915 c -5.83461,-0.34907 -9.83043,-3.044848 -11.38051,-7.677847 -0.48432,-1.447586 -0.69684,-2.836167 -0.6948,-4.540171 0.004,-3.206157 0.98371,-5.82777 2.95266,-7.899177 2.34592,-2.467988 5.64643,-3.748509 9.65064,-3.744225 1.85589,0.002 3.31917,0.194708 4.75102,0.625743 4.23035,1.273468 6.8595,4.038459 7.754,8.154633 0.13566,0.624245 0.15862,0.959398 0.16135,2.354921 0.002,0.894905 -0.0202,1.684043 -0.0488,1.753648 -0.0491,0.119687 -0.60859,0.126551 -10.31299,0.126551 l -10.26102,0 0.0907,0.560442 c 0.33723,2.082716 1.15917,3.523773 2.65108,4.647958 2.31154,1.741796 5.76483,2.244176 10.39049,1.511596 1.23889,-0.19621 2.30146,-0.47548 4.23169,-1.112198 0.90991,-0.300152 1.68254,-0.545728 1.71695,-0.545728 0.0344,0 0.0626,0.845646 0.0626,1.879226 l 0,1.879228 -0.27119,0.1137 c -1.61817,0.67845 -3.63784,1.27506 -5.24317,1.54882 -1.89554,0.32325 -4.40674,0.47021 -6.20072,0.36288 z m 8.57039,-14.87623 c -0.27752,-2.221162 -3.00329,-4.564763 -6.0032,-5.161511 -0.76709,-0.152592 -2.94447,-0.13447 -3.72424,0.03099 -3.41512,0.724681 -5.87151,2.748079 -6.18227,5.092516 l -0.0503,0.379084 4.32755,0.01922 c 2.38015,0.01058 5.9828,0.02709 8.00588,0.03673 l 3.67833,0.0175 -0.0518,-0.414542 z"
         style="fill:#b1b2b2;fill-opacity:1;stroke:none" /><path
         inkscape:connector-curvature="0"
         id="path29110"
         d="m -193.36555,90.91203 0,-11.425814 1.97583,0 1.97583,0 0.16486,0.958178 c 0.0907,0.526997 0.18038,0.983646 0.19935,1.014773 0.019,0.03113 0.13768,-0.0069 0.2638,-0.08455 1.00165,-0.616559 2.69323,-1.316897 4.11851,-1.705116 2.84157,-0.774 7.09959,-0.867458 9.70606,-0.213035 2.34463,0.588684 4.02878,1.678971 5.06298,3.277675 0.66962,1.035126 1.07901,2.291029 1.18719,3.642041 0.0389,0.486159 0.0937,4.276415 0.12171,8.422788 l 0.0509,7.53887 -2.35089,0 -2.35089,0 -0.0392,-7.71965 -0.0392,-7.71966 -0.25444,-0.672908 c -0.32231,-0.85241 -0.63258,-1.368783 -1.13504,-1.889043 -0.48239,-0.49948 -0.98603,-0.79456 -1.84555,-1.081298 -2.17898,-0.726911 -5.31947,-0.657462 -8.3509,0.184675 -0.90934,0.252614 -2.50609,0.8934 -3.18188,1.2769 l -0.54236,0.307786 -0.0184,8.6566 -0.0184,8.656598 -2.34995,0 -2.34995,0 0,-11.425814 z"
         style="fill:#b1b2b2;fill-opacity:1;stroke:none" /><path
         inkscape:connector-curvature="0"
         id="path29112"
         d="m -148.55126,102.92024 c -4.08058,-0.16009 -7.27848,-1.31153 -9.49247,-3.417876 -0.84828,-0.80704 -1.47591,-1.66094 -1.99764,-2.71782 -0.88297,-1.788691 -1.23861,-3.472685 -1.23606,-5.852936 0.004,-3.600648 1.04759,-6.329954 3.2213,-8.423614 1.67288,-1.611266 3.8503,-2.634671 6.68457,-3.141791 2.76506,-0.494738 6.35884,-0.381539 8.97984,0.282852 4.32344,1.095936 7.1155,3.765598 8.1256,7.769383 0.25765,1.021272 0.33637,1.677958 0.37289,3.110837 0.0416,1.632776 -0.0536,2.626746 -0.37413,3.905024 -1.20232,4.795005 -4.87444,7.666991 -10.66814,8.343621 -0.94361,0.1102 -2.68613,0.17879 -3.61576,0.14232 z m 3.43498,-3.892676 c 2.63791,-0.48219 4.70338,-1.99563 5.71669,-4.188818 0.65232,-1.411859 0.88455,-3.127223 0.67925,-5.017395 -0.16141,-1.486165 -0.67419,-2.93438 -1.39828,-3.949096 -0.35177,-0.49296 -1.08142,-1.206093 -1.59692,-1.560765 -0.47849,-0.329215 -1.50177,-0.818179 -2.17138,-1.037587 -1.20689,-0.395444 -1.40665,-0.421685 -3.51504,-0.461744 l -1.99641,-0.03793 -0.93126,0.233098 c -1.85528,0.46438 -2.95016,1.028325 -4.02652,2.073941 -0.87827,0.853192 -1.46431,1.918081 -1.84115,3.345533 -0.15543,0.588764 -0.18806,0.900345 -0.21809,2.082887 -0.0388,1.527647 0.0269,2.1911 0.31561,3.18741 0.59351,2.048058 1.96867,3.723579 3.82428,4.659579 0.47475,0.23947 1.64252,0.61003 2.33827,0.74197 0.76438,0.14496 3.89127,0.0989 4.82095,-0.0711 z"
         style="fill:#b1b2b2;fill-opacity:1;stroke:none" /><path
         inkscape:connector-curvature="0"
         id="path29114"
         d="m -121.17059,102.91455 c -2.71226,-0.27816 -4.16737,-1.33245 -4.78989,-3.470501 -0.24137,-0.82896 -0.27399,-2.77387 -0.28044,-16.721725 l -0.006,-12.420148 2.30546,0 2.30546,0 0.0421,12.998673 c 0.0234,7.213713 0.0727,13.34149 0.11076,13.76897 0.0947,1.06289 0.28601,1.37664 1.01666,1.66736 0.36704,0.14604 0.55276,0.16247 2.10898,0.18661 1.48882,0.0231 1.81169,0.007 2.53104,-0.12344 0.45349,-0.0825 0.89775,-0.17013 0.98724,-0.19484 l 0.16271,-0.0449 0,1.847601 c 0,1.69748 -0.0103,1.85058 -0.12655,1.88419 -1.5122,0.43713 -4.92281,0.77038 -6.36781,0.62218 z m -0.66485,-31.961536 0,-0.506208 -2.09715,0 -2.09714,0 0,0.506208 0,0.506208 2.09714,0 2.09715,0 0,-0.506208 z"
         style="fill:#b1b2b2;fill-opacity:1;stroke:none" /><path
         inkscape:connector-curvature="0"
         id="path29116"
         d="m -98.839189,102.80775 c -1.703341,-0.11882 -3.086331,-0.37617 -4.483551,-0.83431 -2.84936,-0.93428 -4.93761,-2.589263 -6.23901,-4.944563 -1.76058,-3.186328 -1.87929,-8.260859 -0.27343,-11.687686 1.2431,-2.652696 3.53019,-4.539578 6.73239,-5.554302 2.03344,-0.644367 4.664238,-0.924639 7.215513,-0.768711 3.369725,0.205948 5.792947,0.916581 7.863078,2.305913 2.174068,1.459089 3.656976,3.764955 4.2224,6.565666 0.389159,1.927631 0.345911,4.575974 -0.104372,6.391139 -1.020557,4.114051 -3.896822,6.877404 -8.315578,7.989154 -1.999418,0.50304 -4.36212,0.69502 -6.61744,0.5377 l 0,0 z m 4.175371,-3.894203 c 1.813568,-0.37374 3.048093,-0.99783 4.146383,-2.09612 1.511568,-1.51157 2.186116,-3.303083 2.180347,-5.790719 -0.01005,-4.325691 -1.807653,-6.825384 -5.760406,-8.010192 l -0.872826,-0.261623 -2.060987,-0.02786 -2.060984,-0.02786 -0.889464,0.224562 c -2.348365,0.592886 -3.825275,1.510631 -4.835485,3.004746 -0.83455,1.234322 -1.18488,2.44882 -1.2933,4.483546 -0.15937,2.991034 0.94287,5.597754 3.03056,7.167101 0.86251,0.64836 2.42551,1.28219 3.628425,1.47141 0.237372,0.0373 1.245125,0.0561 2.239462,0.0417 1.483837,-0.0215 1.940588,-0.0535 2.548275,-0.17873 l 0,0 z"
         style="fill:#b1b2b2;fill-opacity:1;stroke:none" /><path
         inkscape:connector-curvature="0"
         id="path29118"
         d="m -69.460175,112.02429 c -2.208597,-0.26407 -3.824754,-0.59979 -5.462707,-1.13474 l -0.831624,-0.2716 -0.01922,-2.00675 c -0.01058,-1.10371 0.0014,-2.00675 0.02678,-2.00675 0.02532,0 0.556415,0.15996 1.180234,0.35547 3.52865,1.10588 5.099411,1.34006 8.972493,1.33763 2.314208,-0.001 2.649144,-0.0169 3.398819,-0.15673 1.249155,-0.23301 2.051064,-0.4832 2.892612,-0.90246 0.648081,-0.32288 0.85583,-0.47386 1.418223,-1.03062 0.581688,-0.57586 0.701917,-0.74128 1.025858,-1.4114 0.246072,-0.50904 0.41455,-0.98538 0.511454,-1.44608 0.152835,-0.72658 0.29799,-2.07167 0.298405,-2.76515 l 2.14e-4,-0.4149 -0.415812,0.18989 c -2.230241,1.01849 -3.413588,1.38162 -5.491607,1.68521 -2.447267,0.35753 -4.956367,0.23156 -7.362401,-0.36963 -4.286301,-1.07103 -6.996741,-3.602192 -7.990851,-7.462333 -0.342689,-1.330656 -0.397096,-1.831908 -0.393667,-3.626734 0.0036,-1.899716 0.129978,-2.803544 0.581274,-4.158129 0.530778,-1.593162 1.203996,-2.696391 2.34136,-3.836879 0.859635,-0.861991 1.739545,-1.484272 2.869365,-2.029234 2.856535,-1.377835 6.984738,-1.839931 10.868381,-1.216576 1.772485,0.2845 3.123796,0.702152 4.461888,1.379045 l 0.95036,0.480757 0.08305,-0.443879 c 0.04568,-0.24413 0.116586,-0.614719 0.157573,-0.82353 l 0.07452,-0.379656 1.959147,0 1.959144,0 -0.05092,11.984778 c -0.04838,11.38811 -0.05774,12.01604 -0.187991,12.61282 -0.31089,1.42446 -0.949706,2.89532 -1.681031,3.87056 -1.451012,1.93495 -3.600484,3.09297 -7.11561,3.83349 l -1.292899,0.27237 -3.290347,0.0149 c -2.849524,0.0129 -3.444968,-0.004 -4.444486,-0.12313 l 0,0 z m 7.798545,-13.631172 c 1.785076,-0.26667 3.458986,-0.82314 5.048213,-1.67823 l 0.483749,-0.26028 0.05029,-0.46959 c 0.06086,-0.56832 -0.03661,-10.715951 -0.105562,-10.990045 -0.04077,-0.162061 -0.213504,-0.276242 -1.060758,-0.701184 -1.373603,-0.688941 -2.848844,-1.156759 -4.444297,-1.409347 -0.365252,-0.05783 -1.18248,-0.07513 -2.494875,-0.05283 -1.69229,0.02875 -2.033406,0.05396 -2.566383,0.189616 -2.155345,0.548601 -3.601866,1.345066 -4.599369,2.532451 -1.078115,1.283338 -1.618765,2.931642 -1.619454,4.937308 -8.46e-4,2.127905 0.529207,3.814056 1.626918,5.176493 1.276187,1.58394 3.490101,2.6257 6.03821,2.84126 0.915918,0.0775 2.737685,0.0197 3.643319,-0.11562 z"
         style="fill:#b1b2b2;fill-opacity:1;stroke:none" /><path
         inkscape:connector-curvature="0"
         id="path29120"
         d="m -41.552143,102.31976 c -0.01891,-0.0497 -0.02602,-5.183193 -0.0158,-11.407728 l 0.01857,-11.317342 2.296011,-0.01911 2.29601,-0.01911 0,11.42683 0,11.42683 -2.280203,0 c -1.757612,0 -2.28808,-0.0207 -2.314581,-0.0904 z"
         style="fill:#b1b2b2;fill-opacity:1;stroke:none" /><path
         inkscape:connector-curvature="0"
         id="path29122"
         d="m -41.568395,72.778976 0.01902,-2.512958 2.296011,-0.01908 2.29601,-0.01911 0,2.53205 0,2.53205 -2.315026,0 -2.315027,0 0.01902,-2.512955 z"
         style="fill:#b1b2b2;fill-opacity:1;stroke:none" /><path
         transform="matrix(0.28222222,0,0,0.28222222,-3.3493983e-6,0)"
         inkscape:connector-curvature="0"
         d="m -445.24603,251.32624 c 0.42047,0 0.84094,0 1.26141,0 0.42105,0 0.8421,0 1.26314,0 0.0752,2.69971 0.69348,2.5366 -0.59475,2.5366 -0.2409,0 -0.48181,0 -0.72271,0 -1.79365,0 -1.79365,-2.5366 0,-2.5366 l 0,0 c 0.2409,0 0.48181,0 0.72271,0 1.28823,0 0.66992,-0.16311 0.59475,2.5366 -0.42104,0 -0.84209,0 -1.26314,0 -0.42047,0 -0.84094,0 -1.26141,0 -1.79365,0 -1.79365,-2.5366 0,-2.5366 z"
         id="path29170"
         style="fill:#b1b2b2;fill-opacity:1;stroke:none" /><path
         transform="matrix(0.28222222,0,0,0.28222222,-3.3493983e-6,0)"
         inkscape:connector-curvature="0"
         d="m -445.78959,249.69556 c 0.41325,0 0.8265,0 1.23974,0 0.45877,-0.0241 0.9102,0.0244 1.36193,0.0991 0.42485,0.0659 0.80651,0.2736 1.21913,0.37925 1.72915,0.47665 1.05506,2.92204 -0.67409,2.44539 l 0,0 c -0.32572,-0.0926 -0.63856,-0.21558 -0.95892,-0.32203 -0.31672,-0.0524 -0.62415,-0.092 -0.94805,-0.0651 -0.41324,0 -0.82649,0 -1.23974,0 -1.79365,0 -1.79365,-2.5366 0,-2.5366 z"
         id="path29172"
         style="fill:#b1b2b2;fill-opacity:1;stroke:none" /><path
         transform="matrix(0.28222222,0,0,0.28222222,-3.3493983e-6,0)"
         inkscape:connector-curvature="0"
         d="m -431.56421,250.14968 c 0,0.1461 0,0.29221 0,0.43831 0,0.17053 0,0.34107 0,0.5116 0.003,0.17753 0.004,0.35338 -0.0239,0.52911 -0.0319,0.1913 -0.0319,0.38645 -0.0362,0.57987 -0.002,0.29682 -0.002,0.59284 -0.024,0.88895 -0.0472,0.63239 -0.94152,0.56566 -0.89433,-0.0667 l 0,0 c 0.0211,-0.28039 0.019,-0.56079 0.0217,-0.84188 0.005,-0.23432 0.008,-0.47025 0.0472,-0.70189 0.0213,-0.12763 0.0105,-0.25755 0.0126,-0.38743 0,-0.17053 0,-0.34107 0,-0.5116 0,-0.1461 0,-0.29221 0,-0.43831 0,-0.63415 0.89682,-0.63415 0.89682,0 z"
         id="path29184"
         style="fill:#b1b2b2;fill-opacity:1;stroke:none" /><g
         id="g29188"><path
           style="fill:#b1b2b2;fill-opacity:1;stroke:none"
           id="path29166"
           d="m -442.50657,250.96386 c 0.45962,0 0.91924,0 1.37887,0 0.39219,0 0.78438,0 1.17657,0 0.36274,0 0.72548,0 1.08822,0 0.36192,0 0.72385,0 1.08578,0 0.36234,0 0.72468,0 1.08701,0 0.41183,0 0.82366,0 1.23548,0 0.37357,0 0.74714,0 1.12071,0 0.43133,-0.0111 0.85667,-0.004 1.28171,0.0758 0.0519,0.0105 0.10379,0.021 0.15568,0.0315 1.75803,0.35568 1.25503,2.8419 -0.503,2.48623 l 0,0 c -0.0485,-0.01 -0.097,-0.0196 -0.14544,-0.0294 -0.22008,-0.0504 -0.52489,-0.02 -0.78895,-0.0274 -0.37357,0 -0.74714,0 -1.12071,0 -0.41182,0 -0.82365,0 -1.23548,0 -0.36233,0 -0.72467,0 -1.08701,0 -0.36193,0 -0.72386,0 -1.08578,0 -0.36274,0 -0.72548,0 -1.08822,0 -0.39219,0 -0.78438,0 -1.17657,0 -0.45963,0 -0.91925,0 -1.37887,0 -1.79365,0 -1.79365,-2.5366 0,-2.5366 z"
           inkscape:connector-curvature="0"
           transform="matrix(0.28222222,0,0,0.28222222,-3.3493983e-6,0)" /><path
           style="fill:#b1b2b2;fill-opacity:1;stroke:none"
           id="path29168"
           d="m -441.62232,249.15201 c 0.41325,0 0.8265,0 1.23974,0 0.4882,-0.0266 0.96951,0.0569 1.45137,0.11993 0.45843,0.0477 0.92007,0.0524 1.38052,0.059 0.40682,0.004 0.81367,0.004 1.2205,0.003 0.36381,-4.9e-4 0.72762,-7.4e-4 1.09143,-8.8e-4 0.36181,-1.1e-4 0.72361,-10e-5 1.08542,-1.1e-4 0.24152,0 0.48305,1e-5 0.72457,1e-5 1.79365,10e-6 1.79363,2.53661 -2e-5,2.5366 l 0,0 c -0.24151,0 -0.48302,-1e-5 -0.72453,-1e-5 -0.3615,1e-5 -0.72299,0 -1.08448,1.1e-4 -0.36324,1.4e-4 -0.72649,3.9e-4 -1.08973,8.8e-4 -0.41987,4.4e-4 -0.83976,0.001 -1.25961,-0.004 -0.55862,-0.008 -1.11865,-0.0162 -1.67423,-0.0803 -0.37328,-0.0491 -0.74278,-0.12467 -1.12121,-0.0983 -0.41324,0 -0.82649,0 -1.23974,0 -1.79365,0 -1.79365,-2.5366 0,-2.5366 z"
           inkscape:connector-curvature="0"
           transform="matrix(0.28222222,0,0,0.28222222,-3.3493983e-6,0)" /><path
           style="fill:#b1b2b2;fill-opacity:1;stroke:none"
           id="path29174"
           d="m -445.24603,251.50742 c 0.41324,0 0.82649,0 1.23974,0 0.385,0 0.76999,0 1.15499,0 0.0609,0 0.12186,0 0.18279,0 1.79365,0 1.79365,2.5366 0,2.5366 l 0,0 c -0.0609,0 -0.12186,0 -0.18279,0 -0.385,0 -0.76999,0 -1.15499,0 -0.41325,0 -0.8265,0 -1.23974,0 -1.79365,0 -1.79365,-2.5366 0,-2.5366 z"
           inkscape:connector-curvature="0"
           transform="matrix(0.28222222,0,0,0.28222222,-3.3493983e-6,0)" /><path
           style="fill:#b1b2b2;fill-opacity:1;stroke:none"
           id="path29178"
           d="m -445.61884,249.98325 c 0.14611,0 0.29221,0 0.43832,0 0.1422,0 0.28439,0 0.42659,0 -0.0139,0.0134 0.27328,-0.013 0.21025,-0.0183 0.006,-0.01 0.008,-0.008 -0.004,-0.008 -0.004,0.002 -0.0154,0.0103 -0.013,0.006 0.0428,-0.0726 0.11361,-0.13122 0.17444,-0.18787 0.13939,-0.11182 0.29796,-0.19474 0.46662,-0.25198 0.12232,-0.028 0.24332,-0.0437 0.36468,-0.0714 0.1435,-0.0318 0.29046,-0.0393 0.43687,-0.0437 0.13196,-0.003 0.26396,-0.002 0.39594,-0.002 0.10683,1.6e-4 0.21365,2.8e-4 0.32048,3.5e-4 0.63415,4.5e-4 0.63351,0.89728 -6.4e-4,0.89682 l 0,0 c -0.10693,-7e-5 -0.21387,-1.9e-4 -0.32081,-3.5e-4 -0.12281,-1.3e-4 -0.24565,-5.9e-4 -0.36845,0.002 -0.0885,0.003 -0.17771,0.005 -0.26489,0.0219 -0.0973,0.0219 -0.19414,0.047 -0.29414,0.0523 -0.0491,0.004 -0.0887,0.0581 -0.13065,0.0585 -0.12366,0.10744 -0.20264,0.26815 -0.36623,0.33183 -0.1945,0.0855 -0.39344,0.12409 -0.60667,0.11067 -0.1422,0 -0.28439,0 -0.42659,0 -0.14611,0 -0.29221,0 -0.43832,0 -0.63415,0 -0.63415,-0.89682 0,-0.89682 z"
           inkscape:connector-curvature="0"
           transform="matrix(0.28222222,0,0,0.28222222,-3.3493983e-6,0)" /><path
           style="fill:#b1b2b2;fill-opacity:1;stroke:none"
           id="path29180"
           d="m -446.47548,249.53588 c 0.1649,-0.0321 0.33232,-0.047 0.49979,-0.0571 0.14445,-0.007 0.28912,-0.008 0.43372,-0.008 0.11278,0.008 0.21981,-0.002 0.32976,-0.0216 0.10023,-0.0172 0.20929,-0.0557 0.31984,-0.0875 0.20997,-0.0441 0.42174,-0.082 0.63417,-0.11284 0.11376,-0.0137 0.0651,-0.005 0.14662,-0.0221 0.62319,-0.11741 0.78922,0.76391 0.16604,0.88132 l 0,0 c -0.13464,0.0241 -0.073,0.0154 -0.18455,0.0284 -0.173,0.0248 -0.34467,0.058 -0.51678,0.0878 -0.13458,0.0376 -0.2678,0.0836 -0.40573,0.10743 -0.16146,0.0292 -0.32292,0.0441 -0.48718,0.0359 -0.12768,3.1e-4 -0.25542,6.3e-4 -0.38298,0.007 -0.12621,0.007 -0.25245,0.0178 -0.37684,0.0413 -0.62184,0.12436 -0.79772,-0.75504 -0.17588,-0.87941 z"
           inkscape:connector-curvature="0"
           transform="matrix(0.28222222,0,0,0.28222222,-3.3493983e-6,0)" /><path
           style="fill:#b1b2b2;fill-opacity:1;stroke:none"
           id="path29182"
           d="m -445.67998,251.53344 c -0.0629,0.14187 -0.0852,0.2999 -0.12405,0.44982 -0.0706,0.23806 -0.17161,0.46547 -0.25137,0.70034 -0.0383,0.11804 -0.045,0.24269 -0.0499,0.36577 -0.004,0.1844 -0.002,0.36886 -10e-4,0.55327 10e-5,0.0439 1.9e-4,0.0879 2.9e-4,0.13178 0.001,0.63415 -0.89543,0.63612 -0.89682,0.002 l 0,0 c -10e-5,-0.0438 -2e-4,-0.0876 -2.9e-4,-0.13139 -5.2e-4,-0.19796 -0.003,-0.39597 0.002,-0.59389 0.009,-0.20907 0.0294,-0.41884 0.0975,-0.61822 0.0736,-0.21329 0.16098,-0.42155 0.23192,-0.63575 0.061,-0.23239 0.0971,-0.4758 0.22288,-0.68511 0.32627,-0.54378 1.09529,-0.0824 0.76902,0.46141 z"
           inkscape:connector-curvature="0"
           transform="matrix(0.28222222,0,0,0.28222222,-3.3493983e-6,0)" /><path
           style="fill:#b1b2b2;fill-opacity:1;stroke:none"
           id="path29186"
           d="m -432.45999,253.8764 c -0.0318,-0.23209 -0.0673,-0.46377 -0.0937,-0.69664 -0.0251,-0.24373 -0.0315,-0.4888 -0.035,-0.73362 -0.002,-0.20938 -0.001,-0.41877 -9.5e-4,-0.62816 3.2e-4,-0.20682 3.9e-4,-0.41364 4.4e-4,-0.62047 -0.007,-0.3602 0.0287,-0.71774 0.11543,-1.06712 0.0544,-0.20977 0.12813,-0.41378 0.2213,-0.60926 0.0185,-0.0588 -0.0261,0.0824 -0.0258,0.0887 0.0115,0.22719 0.0317,0.26035 0.19505,0.39892 0.022,0.0187 0.0538,0.0217 0.0784,0.0367 -0.12072,-0.002 -0.24147,-9.7e-4 -0.3622,-7e-5 -0.0464,-0.001 -0.0897,0.001 -0.13451,0.0136 -0.002,6.4e-4 0.004,0.004 0.007,0.003 0.0156,-0.003 0.0313,-0.007 0.0456,-0.0138 0.0203,-0.01 0.0381,-0.0244 0.0571,-0.0366 0.0658,-0.0627 0.0805,-0.0871 0.0625,-0.1769 -0.006,-0.0149 -0.0269,-0.0312 -0.0181,-0.0446 0.004,-0.006 0.0566,0.0364 0.1142,0.0694 0.0792,0.0453 0.16288,0.0854 0.24437,0.12659 0.17834,0.0953 0.42697,0.30282 0.44415,0.521 0.008,0.0984 -0.0147,0.19676 -0.022,0.29514 -0.0762,0.0881 -0.13601,0.19352 -0.22851,0.26429 -0.0936,0.0716 -0.30507,0.0973 -0.4198,0.10792 -0.30352,0.028 -0.6075,0.0182 -0.91148,0.009 -0.88831,-0.0554 -1.7749,-0.13317 -2.66329,-0.1874 -0.63297,-0.0387 -0.5783,-0.93381 0.0547,-0.89515 l 0,0 c 0.87974,0.0538 1.75775,0.1299 2.63731,0.18619 0.35449,0.0121 0.27159,0.0155 0.60074,0.005 0.0596,-0.002 0.11918,-0.005 0.17874,-0.008 0.0264,-0.001 0.0593,-0.0225 0.0793,-0.005 0.0143,0.0124 -0.0294,0.0238 -0.0441,0.0356 -0.0446,0.0676 -0.0892,0.13525 -0.13379,0.20287 0.001,0.0721 -0.005,0.14493 0.004,0.21646 0.0107,0.0802 0.13555,0.12389 0.0172,0.0521 -0.26418,-0.13488 -0.53565,-0.26636 -0.71604,-0.51185 -0.0272,-0.0616 -0.0616,-0.12048 -0.0815,-0.18478 -0.0761,-0.24568 0.005,-0.50471 0.15621,-0.70049 0.0428,-0.0368 0.0817,-0.079 0.12853,-0.11049 0.15619,-0.10504 0.35187,-0.12755 0.53487,-0.12935 0.15596,-0.001 0.3122,-0.005 0.46793,0.006 0.0793,0.0114 0.17957,0.0195 0.24758,0.0649 0.27368,0.18273 0.34196,0.41209 0.20694,0.7049 -0.0256,0.0373 -0.005,0.005 -0.0393,0.0912 -0.0442,0.11084 -0.087,0.22118 -0.11457,0.33792 -0.0742,0.27507 -0.0897,0.56054 -0.0873,0.84461 -5e-5,0.20714 -1.3e-4,0.41428 -4.5e-4,0.62142 -2.7e-4,0.20471 -8.6e-4,0.40942 8.6e-4,0.61412 0.003,0.21561 0.008,0.43145 0.0295,0.64617 0.0232,0.2076 0.0565,0.41382 0.0819,0.62109 0.12437,0.62184 -0.75504,0.79772 -0.87941,0.17588 z"
           inkscape:connector-curvature="0"
           transform="matrix(0.28222222,0,0,0.28222222,-3.3493983e-6,0)" /></g></g></g></g></svg>